<svg xmlns="http://www.w3.org/2000/svg" viewBox="0 0 67.15 25"><title>NEA_FOD2017_Submissions_TODEV</title><path d="M148.8,2573.73h-3.65l-2.64,6.24,4.09,8.71h-6.44l-0.52,1.39h7.62l3.84,8.15h11.05c-2.33-.95-3.82-4.36-5-6.83Z" transform="translate(-95 -2573.29)" fill="#fff"/><path d="M120.38,2573.73h-3.93c2.29,1.6,3.93,3,3.93,8.6v15.89h21.25l-2.79-5.93c-1.62,2.49-4.68,5-10.2,5v-10.72s2.76,0.83,5.53,4.85v-10.87c-2.77,4.09-5.53,4.68-5.53,4.68v-10.54c6,0,8.8,2.86,10.3,5.44l2.69-6.38H120.38Z" transform="translate(-95 -2573.29)" fill="#fff"/><path d="M118.45,2585.91l-11.16-12.17H95c1.71,1,4.14,2.58,4.14,7.57v9.63a8.07,8.07,0,0,1-3.89,7.29h9a8.05,8.05,0,0,1-3.89-7.29v-12.36l18.07,19.72v-12.38Z" transform="translate(-95 -2573.29)" fill="#fff"/><path d="M152.91,2575.13a1.85,1.85,0,0,1,1.88-1.84A1.84,1.84,0,1,1,152.91,2575.13Zm3.4,0a1.52,1.52,0,1,0-1.52,1.52A1.46,1.46,0,0,0,156.31,2575.12Zm-2.2-.93h0.7a0.6,0.6,0,0,1,.74.57h0a0.49,0.49,0,0,1-.33.49l0.44,0.74h-0.53l-0.37-.65h-0.13V2576h-0.51v-1.81Zm0.68,0.83a0.22,0.22,0,0,0,.26-0.22h0a0.21,0.21,0,0,0-.26-0.21h-0.17V2575h0.17Z" transform="translate(-95 -2573.29)" fill="#fff"/></svg>