<svg id="Layer_1" data-name="Layer 1" xmlns="http://www.w3.org/2000/svg" viewBox="0 0 543.195 217.118">
  <title>Artboard 2</title>
  <g>
    <path d="M11.84,31.008,33.746,56.244H41.59L19.611,30.934h3.7c9.1,0,15.172-6.069,15.172-15.1S32.414.74,23.311.74H5.92v55.5h5.92Zm0-24.792H23.311c5.551,0,9.252,3.848,9.252,9.621s-3.7,9.621-9.252,9.621H11.84Z" style="fill: #5147ff"/>
    <polygon points="80.417 50.767 67.244 50.767 67.244 19.241 47.855 19.241 47.855 24.717 61.324 24.717 61.324 50.767 47.855 50.767 47.855 56.244 80.417 56.244 80.417 50.767" style="fill: #5147ff"/>
    <path d="M64.063,9.621c2.59,0,4.365-1.924,4.365-4.884C68.428,1.924,66.652,0,64.063,0S59.77,1.924,59.77,4.736C59.77,7.7,61.472,9.621,64.063,9.621Z" style="fill: #5147ff"/>
    <path d="M105.332,75.485c9.354,0,15.8-3.953,16.506-9.992H441.855v-3.7H431.733a9.791,9.791,0,0,0,5.683-9.25c0-4.663-2.441-6.661-5.18-6.661a4.335,4.335,0,0,0-4.44,4.663c0,2.664,1.479,5.254,4.736,4.958a4.285,4.285,0,0,1-4.515,4.292v2H121.484c-1.589-4.827-7.672-7.918-16.152-7.918-6.661,0-11.619-.444-11.619-6.734a5.829,5.829,0,0,1,1.258-3.256c2.146,2.294,6.291,3.774,10.361,3.774,9.027,0,15.022-5.772,15.022-14.5a16.286,16.286,0,0,0-2.072-7.845,24.861,24.861,0,0,0,3.183-11.1h-5.921c0,2.442.074,5.328-.739,7.03-2.146-1.628-6.068-2.738-9.473-2.738-8.955,0-14.949,5.847-14.949,14.653a17.679,17.679,0,0,0,1.554,6.882,9.964,9.964,0,0,0-4.366,7.7c0,4.44,2.664,7.1,6.66,8.437A8.915,8.915,0,0,0,89,61.793H0v3.7H88.668C89.289,71.537,95.767,75.485,105.332,75.485Zm0-51.507a8.761,8.761,0,0,1,9.1,9.177,9.066,9.066,0,0,1-18.131,0C96.3,27.9,99.93,23.978,105.332,23.978Zm0,46.031c-5.784,0-9.808-1.869-10.638-4.516h21.142C115.044,68.114,111.02,70.009,105.332,70.009Zm0-10.953c4.323,0,7.686,1.061,9.4,2.738H95.723C97.429,60.1,100.855,59.056,105.332,59.056Z" style="fill: #5147ff"/>
    <path d="M134.85,36.04c0-7.771,5.18-12.062,10.359-12.062,5.107,0,10.361,4.292,10.361,12.062v20.2h5.92V36.188c0-11.767-8.141-17.687-16.281-17.687A11.878,11.878,0,0,0,134.85,23.83V.74h-5.921v55.5h5.921Z" style="fill: #5147ff"/>
    <path d="M173.218,43.959c0,8.362,4.884,13.025,12.137,13.025,6.364,0,11.175-4.367,12.063-10.879l-5.328-.666c-.963,4.736-3.775,6.068-6.735,6.068-3.7,0-6.216-2.516-6.216-7.548V24.717h12.285V19.241H179.139V6.882h-5.921V19.241h-6.882v5.476h6.882Z" style="fill: #5147ff"/>
    <path d="M267.717,39.889a15.007,15.007,0,0,0-9.547-14.283,13.414,13.414,0,0,0,5.994-11.175c0-8.584-5.7-13.691-14.209-13.691h-14.8v55.5h16.281C261.205,56.244,267.717,49.731,267.717,39.889ZM241.075,6.216h8.88c4.959,0,8.289,3.182,8.289,8.659,0,5.4-3.034,9.1-8.289,9.1h-8.88Zm0,22.941h10.583c6.29,0,10.139,4.44,10.139,10.731s-4.145,10.878-10.361,10.878h-10.36Z" style="fill: #5147ff"/>
    <path d="M291.2,50.767h-6.66V32.858c0-5.328,2.737-8.88,6.808-8.88s6.809,3.552,6.809,8.88h5.921c0-8.584-5.107-14.357-12.729-14.357s-12.729,5.772-12.729,14.357V50.767h-6.809v5.477H291.2Z" style="fill: #5147ff"/>
    <path d="M323.953,31.526c-9.1,0-15.1,5.032-15.1,12.655,0,7.7,7.326,12.8,15.1,12.8,4.885,0,8.067-1.628,10.065-4.07v3.33h5.921V32.784c0-8.363-6.143-14.283-15.764-14.283-6.512,0-9.916,2.072-13.32,5.7l4.144,4a11.475,11.475,0,0,1,9.177-4.218c5.847,0,9.843,3.626,9.843,8.807v2.294A15.572,15.572,0,0,0,323.953,31.526ZM334.24,44.181c0,4.145-3.848,7.327-9.694,7.327-6.29,0-9.769-3.182-9.769-7.327,0-4.07,3.479-7.178,9.769-7.178C330.393,37,334.24,40.11,334.24,44.181Z" style="fill: #5147ff"/>
    <polygon points="379.766 50.767 366.593 50.767 366.593 19.241 347.203 19.241 347.203 24.717 360.672 24.717 360.672 50.767 347.203 50.767 347.203 56.244 379.766 56.244 379.766 50.767" style="fill: #5147ff"/>
    <path d="M363.41,9.621c2.591,0,4.367-1.924,4.367-4.884C367.777,1.924,366,0,363.41,0s-4.292,1.924-4.292,4.736C359.118,7.7,360.82,9.621,363.41,9.621Z" style="fill: #5147ff"/>
    <path d="M392.92,36.04c0-7.252,4.145-12.062,10.361-12.062s10.36,4.81,10.36,12.062v20.2h5.921V36.188c0-10.583-6.513-17.687-16.281-17.687S387,25.605,387,36.188V56.244h5.92Z" style="fill: #5147ff"/>
    <path d="M124.318,76.552v55.5h5.92V110.595h9.178c10.508,0,17.465-6.809,17.465-17.021s-6.957-17.021-17.465-17.021Zm26.643,17.169c0,6.66-4.589,11.4-11.545,11.4h-9.178V82.029h9.178C146.372,82.029,150.961,86.913,150.961,93.722Z" style="fill: #5147ff"/>
    <polygon points="161.605 126.58 161.605 132.056 193.946 132.056 193.946 126.58 180.773 126.58 180.773 76.552 161.605 76.552 161.605 82.029 174.853 82.029 174.853 126.58 161.605 126.58" style="fill: #5147ff"/>
    <path d="M232.434,113.481c0-11.693-6.734-19.167-16.207-19.167-10.065,0-16.726,7.7-16.726,19.167,0,11.619,6.66,19.315,16.726,19.315,7.622,0,11.988-2.96,15.763-6.735l-3.849-3.848c-2.59,2.294-6.143,5.106-11.914,5.106-5.107,0-10.213-4.292-10.8-10.657h26.863C232.359,115.849,232.434,114.591,232.434,113.481Zm-27.012-2.294c.147-6.29,4.81-11.4,10.8-11.4,6.143,0,10.434,5.624,10.286,11.4Z" style="fill: #5147ff"/>
    <path d="M270.616,132.056V108.6c0-8.363-6.143-14.283-15.763-14.283-6.513,0-9.917,2.072-13.321,5.7l4.144,4a11.478,11.478,0,0,1,9.178-4.218c5.846,0,9.842,3.626,9.842,8.807v2.294a15.571,15.571,0,0,0-10.064-3.552c-9.1,0-15.1,5.032-15.1,12.655,0,7.7,7.326,12.8,15.1,12.8,4.885,0,8.066-1.628,10.064-4.07v3.33Zm-15.394-4.736c-6.29,0-9.768-3.182-9.768-7.327,0-4.07,3.478-7.178,9.768-7.178,5.847,0,9.7,3.108,9.7,7.178C264.918,124.138,261.069,127.32,255.223,127.32Z" style="fill: #5147ff"/>
    <path d="M291.941,127.32c-4.07,0-7.623-2.96-8.585-7.918l-5.476,1.258c.813,7.253,6.809,12.137,14.061,12.137,8.066,0,13.395-4.663,13.395-11.693,0-5.477-3.256-8.881-8.51-10.509-6.217-1.924-10.879-2.294-10.879-5.92,0-2.96,2.812-4.884,5.994-4.884,4.292,0,6.143,2.294,6.957,5.7l5.476-1.184c-1.185-6.291-5.181-9.991-12.433-9.991-6.734,0-11.915,4.145-11.915,10.361,0,5.032,3.552,8.214,8.659,9.621,5.55,1.48,10.73,1.7,10.73,6.809C299.416,124.8,296.455,127.32,291.941,127.32Z" style="fill: #5147ff"/>
    <path d="M345.252,113.481c0-11.693-6.734-19.167-16.207-19.167-10.064,0-16.725,7.7-16.725,19.167,0,11.619,6.66,19.315,16.725,19.315,7.623,0,11.988-2.96,15.764-6.735l-3.85-3.848c-2.59,2.294-6.142,5.106-11.914,5.106-5.106,0-10.213-4.292-10.8-10.657H345.1C345.178,115.849,345.252,114.591,345.252,113.481Zm-27.012-2.294c.148-6.29,4.811-11.4,10.8-11.4,6.143,0,10.435,5.624,10.287,11.4Z" style="fill: #5147ff"/>
    <polygon points="423.691 132.056 423.691 76.552 418.141 76.552 404.449 115.627 390.758 76.552 385.208 76.552 385.208 132.056 391.129 132.056 391.129 91.575 401.489 125.248 407.41 125.248 417.77 91.575 417.77 132.056 423.691 132.056" style="fill: #5147ff"/>
    <path d="M432.05,113.481c0,11.619,6.66,19.315,16.726,19.315,7.622,0,11.988-2.96,15.763-6.735l-3.849-3.848c-2.59,2.294-6.143,5.106-11.914,5.106-5.107,0-10.213-4.292-10.8-10.657h26.863c.074-.814.148-2.072.148-3.182,0-11.693-6.734-19.167-16.207-19.167C438.71,94.313,432.05,102.01,432.05,113.481ZM448.775,99.79c6.143,0,10.434,5.624,10.286,11.4H437.971C438.118,104.9,442.78,99.79,448.775,99.79Z" style="fill: #5147ff"/>
    <path d="M488.971,132.8c7.623,0,11.988-2.96,15.764-6.735l-3.85-3.848c-2.59,2.294-6.142,5.106-11.914,5.106-5.106,0-10.213-4.292-10.8-10.657h26.863c.074-.814.148-2.072.148-3.182,0-11.693-6.734-19.167-16.207-19.167-10.064,0-16.725,7.7-16.725,19.167C472.246,125.1,478.906,132.8,488.971,132.8Zm0-33.006c6.143,0,10.435,5.624,10.287,11.4H478.166C478.314,104.9,482.977,99.79,488.971,99.79Z" style="fill: #5147ff"/>
    <path d="M516.777,119.771c0,8.362,4.885,13.025,12.137,13.025,6.365,0,11.176-4.367,12.063-10.879l-5.328-.666c-.962,4.736-3.774,6.068-6.735,6.068-3.7,0-6.216-2.516-6.216-7.548V100.53h12.285V95.054H522.7V82.695h-5.921V95.054H509.9v5.476h6.882Z" style="fill: #5147ff"/>
    <rect x="118.398" y="137.606" width="424.797" height="3.699" style="fill: #5147ff"/>
    <polygon points="5.92 152.365 5.92 207.869 38.482 207.869 38.482 202.392 11.84 202.392 11.84 152.365 5.92 152.365" style="fill: #5147ff"/>
    <path d="M75.171,189.293c0-11.693-6.734-19.167-16.207-19.167-10.065,0-16.726,7.7-16.726,19.167,0,11.619,6.66,19.315,16.726,19.315,7.622,0,11.989-2.96,15.763-6.735l-3.848-3.848c-2.59,2.294-6.143,5.106-11.915,5.106-5.106,0-10.213-4.292-10.8-10.657H75.023C75.1,191.662,75.171,190.4,75.171,189.293ZM48.159,187c.147-6.29,4.81-11.4,10.8-11.4,6.143,0,10.435,5.624,10.286,11.4Z" style="fill: #5147ff"/>
    <path d="M99.537,155.029a6.73,6.73,0,0,1,5.625,3.552l4.588-2.96a11.535,11.535,0,0,0-10.213-6.068c-7.252,0-12.062,5.18-12.062,12.877v8.437H80.889v5.476h6.586v31.526h5.92V176.342h12.211v-5.476H93.395l-.074-8.437C93.32,157.989,95.837,155.029,99.537,155.029Z" style="fill: #5147ff"/>
    <path d="M118.584,158.507v12.359H111.7v5.476h6.883v19.242c0,8.362,4.884,13.025,12.137,13.025,6.364,0,11.174-4.367,12.063-10.879l-5.328-.666c-.963,4.736-3.774,6.068-6.734,6.068-3.7,0-6.217-2.516-6.217-7.548V176.342h12.285v-5.476H124.5V158.507Z" style="fill: #5147ff"/>
    <path d="M209.531,166.056c0-8.584-5.7-13.691-14.209-13.691h-14.8v55.5H196.8c9.769,0,16.28-6.512,16.28-16.355a15.007,15.007,0,0,0-9.546-14.283A13.414,13.414,0,0,0,209.531,166.056Zm-2.369,25.458c0,6.29-4.145,10.878-10.36,10.878h-10.36V180.783h10.582C203.314,180.783,207.162,185.223,207.162,191.514ZM195.322,175.6h-8.881V157.841h8.881c4.957,0,8.287,3.182,8.287,8.659C203.609,171.9,200.576,175.6,195.322,175.6Z" style="fill: #5147ff"/>
    <path d="M236.717,175.6c4.07,0,6.809,3.552,6.809,8.88h5.92c0-8.584-5.105-14.357-12.729-14.357s-12.729,5.772-12.729,14.357v17.909H217.18v5.477h19.389v-5.477h-6.66V184.483C229.908,179.155,232.646,175.6,236.717,175.6Z" style="fill: #5147ff"/>
    <path d="M269.32,183.151c-9.1,0-15.1,5.032-15.1,12.655,0,7.7,7.326,12.8,15.1,12.8,4.885,0,8.066-1.628,10.064-4.07v3.33h5.92V184.409c0-8.363-6.143-14.283-15.763-14.283-6.513,0-9.917,2.072-13.321,5.7l4.145,4a11.478,11.478,0,0,1,9.177-4.218c5.847,0,9.843,3.626,9.843,8.807V186.7A15.571,15.571,0,0,0,269.32,183.151Zm10.287,12.655c0,4.145-3.85,7.327-9.7,7.327-6.291,0-9.769-3.182-9.769-7.327,0-4.07,3.478-7.178,9.769-7.178C275.758,188.627,279.607,191.735,279.607,195.806Z" style="fill: #5147ff"/>
    <path d="M313.143,156.361c0-2.812-1.775-4.736-4.366-4.736s-4.292,1.924-4.292,4.736c0,2.96,1.7,4.884,4.292,4.884S313.143,159.321,313.143,156.361Z" style="fill: #5147ff"/>
    <polygon points="292.569 202.392 292.569 207.869 325.131 207.869 325.131 202.392 311.959 202.392 311.959 170.866 292.569 170.866 292.569 176.342 306.038 176.342 306.038 202.392 292.569 202.392" style="fill: #5147ff"/>
    <path d="M364.928,207.869V187.813c0-10.583-6.512-17.687-16.281-17.687s-16.281,7.1-16.281,17.688v20.055h5.921v-20.2c0-7.252,4.144-12.062,10.36-12.062s10.361,4.81,10.361,12.063v20.2Z" style="fill: #5147ff"/>
    <rect y="213.418" width="369.365" height="3.699" style="fill: #5147ff"/>
  </g>
</svg>
