<svg xmlns="http://www.w3.org/2000/svg" viewBox="0 0 547.06 217.12"><defs><style>.\39 535b669-8aa4-4173-a26f-04beec668523{fill:#5147ff;}</style></defs><title>Asset 5mark</title><g id="49f5c128-9c8e-4526-aec0-e1ea9dddb5d0" data-name="Layer 2"><g id="475cb7e3-6ff3-4794-b420-891d55a44477" data-name="Layer 6"><path class="9535b669-8aa4-4173-a26f-04beec668523" d="M5.92.74H23.31c9.1,0,15.17,6.07,15.17,15.1s-6.07,15.1-15.17,15.1h-3.7l22,25.31H33.75L11.84,31V56.24H5.92ZM23.31,25.46c5.55,0,9.25-3.85,9.25-9.62s-3.7-9.62-9.25-9.62H11.84V25.46Z"/><path class="9535b669-8aa4-4173-a26f-04beec668523" d="M47.86,50.77H61.32v-26H47.86V19.24H67.24V50.77H80.42v5.48H47.86Zm11.91-46c0-2.81,1.7-4.74,4.29-4.74s4.37,1.92,4.37,4.74-1.78,4.88-4.37,4.88S59.77,7.7,59.77,4.74Z"/><path class="9535b669-8aa4-4173-a26f-04beec668523" d="M88.61,64.53a8.84,8.84,0,0,1,5.62-8.36c-4-1.33-6.66-4-6.66-8.44A10,10,0,0,1,91.94,40a17.68,17.68,0,0,1-1.55-6.88c0-8.81,6-14.65,14.95-14.65,3.4,0,7.33,1.11,9.47,2.74.81-1.7.74-4.59.74-7h5.92a24.87,24.87,0,0,1-3.18,11.1,16.3,16.3,0,0,1,2.07,7.84c0,8.73-6,14.5-15,14.5-4.07,0-8.21-1.48-10.36-3.77a5.83,5.83,0,0,0-1.26,3.26c0,6.29,5,6.73,11.62,6.73,9.92,0,16.58,4.22,16.58,10.51,0,6.66-6.66,11.1-16.58,11.1S88.61,71.12,88.61,64.53Zm27.38,0c0-3.18-4.29-5.48-10.66-5.48s-10.8,2.22-10.8,5.4S98.82,70,105.33,70,116,67.64,116,64.53Zm-1.55-31.38a8.76,8.76,0,0,0-9.1-9.18c-5.4,0-9,3.92-9,9.18a9.07,9.07,0,0,0,18.13,0Z"/><path class="9535b669-8aa4-4173-a26f-04beec668523" d="M128.93.74h5.92V23.83a11.88,11.88,0,0,1,10.36-5.33c8.14,0,16.28,5.92,16.28,17.69V56.24h-5.92V36c0-7.77-5.25-12.06-10.36-12.06S134.85,28.27,134.85,36v20.2h-5.92Z"/><path class="9535b669-8aa4-4173-a26f-04beec668523" d="M173.22,44V24.72h-6.88V19.24h6.88V6.88h5.92V19.24h12.29v5.48H179.14V44c0,5,2.52,7.55,6.22,7.55,3,0,5.77-1.33,6.73-6.07l5.33.67c-.89,6.51-5.7,10.88-12.06,10.88C178.1,57,173.22,52.32,173.22,44Z"/><path class="9535b669-8aa4-4173-a26f-04beec668523" d="M239.6.74V24.42A12.22,12.22,0,0,1,250,18.5c9.77,0,16.28,7.62,16.28,19C266.24,49.21,259.72,57,250,57s-16.28-7.77-16.28-19.46V.74Zm0,36.78c0,8.14,4.14,14,10.36,14s10.36-5.85,10.36-14C260.32,29.68,256.17,24,250,24S239.6,29.68,239.6,37.52Z"/><path class="9535b669-8aa4-4173-a26f-04beec668523" d="M270.84,50.77h6.81V32.86c0-8.58,5.11-14.36,12.73-14.36s12.73,5.77,12.73,14.36h-5.92c0-5.33-2.74-8.88-6.81-8.88s-6.81,3.55-6.81,8.88V50.77h6.66v5.48H270.84Z"/><path class="9535b669-8aa4-4173-a26f-04beec668523" d="M307.88,44.18c0-7.62,6-12.65,15.1-12.65A15.57,15.57,0,0,1,333,35.08V32.78c0-5.18-4-8.81-9.84-8.81A11.48,11.48,0,0,0,314,28.2l-4.14-4c3.4-3.63,6.81-5.7,13.32-5.7,9.62,0,15.76,5.92,15.76,14.28V56.24H333V52.91C331,55.36,327.86,57,323,57,315.21,57,307.88,51.88,307.88,44.18Zm25.38,0c0-4.07-3.85-7.18-9.7-7.18-6.29,0-9.77,3.11-9.77,7.18s3.48,7.33,9.77,7.33C329.42,51.51,333.27,48.33,333.27,44.18Z"/><path class="9535b669-8aa4-4173-a26f-04beec668523" d="M346.23,50.77H359.7v-26H346.23V19.24h19.39V50.77h13.17v5.48H346.23Zm11.92-46c0-2.81,1.7-4.74,4.29-4.74s4.37,1.92,4.37,4.74S365,9.62,362.43,9.62,358.14,7.7,358.14,4.74Z"/><path class="9535b669-8aa4-4173-a26f-04beec668523" d="M418.59,36.19V56.24h-5.92V36c0-7.25-4.14-12.06-10.36-12.06S391.94,28.79,391.94,36v20.2H386V36.19c0-10.58,6.51-17.69,16.28-17.69S418.59,25.61,418.59,36.19Z"/><path class="9535b669-8aa4-4173-a26f-04beec668523" d="M427.49,52.1c0-2.81,1.7-4.74,4.29-4.74s4.37,1.92,4.37,4.74S434.37,57,431.78,57,427.49,55.06,427.49,52.1Z"/><path class="9535b669-8aa4-4173-a26f-04beec668523" d="M0,65.49v-3.7H442.06v3.7Z"/><path class="9535b669-8aa4-4173-a26f-04beec668523" d="M124.32,76.55h15.1c10.51,0,17.46,6.81,17.46,17s-7,17-17.46,17h-9.18v21.46h-5.92Zm15.1,28.57c7,0,11.54-4.74,11.54-11.4S146.37,82,139.42,82h-9.18v23.09Z"/><path class="9535b669-8aa4-4173-a26f-04beec668523" d="M161.61,126.58h13.25V82H161.61V76.55h19.17v50h13.17v5.48H161.61Z"/><path class="9535b669-8aa4-4173-a26f-04beec668523" d="M199.5,113.48c0-11.47,6.66-19.17,16.72-19.17,9.47,0,16.21,7.47,16.21,19.17,0,1.11-.07,2.37-.15,3.18H205.42c.59,6.36,5.7,10.66,10.8,10.66,5.77,0,9.32-2.81,11.91-5.11l3.85,3.85c-3.78,3.77-8.14,6.73-15.76,6.73C206.16,132.8,199.5,125.1,199.5,113.48Zm27-2.29c.15-5.77-4.14-11.4-10.29-11.4s-10.66,5.11-10.8,11.4Z"/><path class="9535b669-8aa4-4173-a26f-04beec668523" d="M239.54,120c0-7.62,6-12.65,15.1-12.65a15.57,15.57,0,0,1,10.06,3.55V108.6c0-5.18-4-8.81-9.84-8.81a11.48,11.48,0,0,0-9.18,4.22l-4.14-4c3.4-3.63,6.81-5.7,13.32-5.7,9.62,0,15.76,5.92,15.76,14.28v23.46H264.7v-3.33c-2,2.44-5.18,4.07-10.06,4.07C246.86,132.8,239.54,127.69,239.54,120Zm25.38,0c0-4.07-3.85-7.18-9.69-7.18-6.29,0-9.77,3.11-9.77,7.18s3.48,7.33,9.77,7.33C261.07,127.32,264.92,124.14,264.92,120Z"/><path class="9535b669-8aa4-4173-a26f-04beec668523" d="M277.88,120.66l5.48-1.26c1,5,4.51,7.92,8.58,7.92,4.51,0,7.47-2.52,7.47-6.22,0-5.11-5.18-5.33-10.73-6.81-5.11-1.41-8.66-4.59-8.66-9.62,0-6.22,5.18-10.36,11.91-10.36,7.25,0,11.25,3.7,12.43,10l-5.48,1.18c-.81-3.4-2.66-5.7-7-5.7-3.18,0-6,1.92-6,4.88,0,3.63,4.66,4,10.88,5.92,5.25,1.63,8.51,5,8.51,10.51,0,7-5.33,11.69-13.39,11.69C284.69,132.8,278.7,127.91,277.88,120.66Z"/><path class="9535b669-8aa4-4173-a26f-04beec668523" d="M312.32,113.48C312.32,102,319,94.31,329,94.31c9.47,0,16.21,7.47,16.21,19.17,0,1.11-.07,2.37-.15,3.18H318.24c.59,6.36,5.7,10.66,10.8,10.66,5.77,0,9.33-2.81,11.92-5.11l3.85,3.85c-3.77,3.77-8.14,6.73-15.76,6.73C319,132.8,312.32,125.1,312.32,113.48Zm27-2.29c.15-5.77-4.14-11.4-10.29-11.4s-10.66,5.11-10.8,11.4Z"/><path class="9535b669-8aa4-4173-a26f-04beec668523" d="M383.73,112c0-11.92,3.55-17.69,11.84-17.69,4.81,0,8.88,2.59,10.29,7.1,1.41-4.51,5.48-7.1,10.29-7.1,8.29,0,11.84,5.77,11.84,17.69v20.06h-5.92V112c0-8.73-2.07-12.21-6.66-12.21-5.25,0-6.81,5.18-6.81,12.21v20.06h-5.48V112c0-7-1.55-12.21-6.81-12.21-4.59,0-6.66,3.48-6.66,12.21v20.06h-5.92Z"/><path class="9535b669-8aa4-4173-a26f-04beec668523" d="M435.91,113.48c0-11.47,6.66-19.17,16.73-19.17,9.47,0,16.21,7.47,16.21,19.17,0,1.11-.07,2.37-.15,3.18H441.83c.59,6.36,5.7,10.66,10.8,10.66,5.77,0,9.33-2.81,11.92-5.11l3.85,3.85c-3.77,3.77-8.14,6.73-15.76,6.73C442.57,132.8,435.91,125.1,435.91,113.48Zm27-2.29c.15-5.77-4.14-11.4-10.29-11.4s-10.66,5.11-10.8,11.4Z"/><path class="9535b669-8aa4-4173-a26f-04beec668523" d="M476.11,113.48c0-11.47,6.66-19.17,16.73-19.17,9.47,0,16.21,7.47,16.21,19.17,0,1.11-.07,2.37-.15,3.18H482c.59,6.36,5.7,10.66,10.8,10.66,5.77,0,9.32-2.81,11.91-5.11l3.85,3.85c-3.77,3.77-8.14,6.73-15.76,6.73C482.77,132.8,476.11,125.1,476.11,113.48Zm27-2.29c.15-5.77-4.14-11.4-10.29-11.4s-10.66,5.11-10.8,11.4Z"/><path class="9535b669-8aa4-4173-a26f-04beec668523" d="M520.64,119.77V100.53h-6.88V95.05h6.88V82.69h5.92V95.05h12.29v5.48H526.56v19.24c0,5,2.52,7.55,6.22,7.55,3,0,5.77-1.33,6.74-6.07l5.33.67c-.89,6.51-5.7,10.88-12.06,10.88C525.53,132.8,520.64,128.13,520.64,119.77Z"/><path class="9535b669-8aa4-4173-a26f-04beec668523" d="M118.4,141.31v-3.7H547.06v3.7Z"/><path class="9535b669-8aa4-4173-a26f-04beec668523" d="M4.44,202.39H17.69V157.84H4.44v-5.48H23.61v50H36.78v5.48H4.44Z"/><path class="9535b669-8aa4-4173-a26f-04beec668523" d="M42.33,189.29c0-11.47,6.66-19.17,16.73-19.17,9.47,0,16.21,7.47,16.21,19.17,0,1.11-.07,2.37-.15,3.18H48.26c.59,6.36,5.7,10.66,10.8,10.66,5.77,0,9.32-2.81,11.91-5.11l3.85,3.85c-3.77,3.77-8.14,6.73-15.76,6.73C49,208.61,42.33,200.91,42.33,189.29Zm27-2.29c.15-5.77-4.14-11.4-10.29-11.4S48.4,180.71,48.26,187Z"/><path class="9535b669-8aa4-4173-a26f-04beec668523" d="M87.57,176.34H81v-5.48h6.59v-8.44c0-7.7,4.81-12.88,12.06-12.88a11.54,11.54,0,0,1,10.21,6.07l-4.59,3A6.73,6.73,0,0,0,99.63,155c-3.7,0-6.22,3-6.22,7.4l.07,8.44H105.7v5.48H93.49v31.53H87.57Z"/><path class="9535b669-8aa4-4173-a26f-04beec668523" d="M118.68,195.58V176.34H111.8v-5.48h6.88V158.51h5.92v12.36h12.29v5.48H124.6v19.24c0,5,2.52,7.55,6.22,7.55,3,0,5.77-1.33,6.73-6.07l5.33.67c-.89,6.51-5.7,10.88-12.06,10.88C123.56,208.61,118.68,203.95,118.68,195.58Z"/><path class="9535b669-8aa4-4173-a26f-04beec668523" d="M185.06,152.36V176a12.22,12.22,0,0,1,10.36-5.92c9.77,0,16.28,7.62,16.28,19,0,11.69-6.51,19.46-16.28,19.46s-16.28-7.77-16.28-19.46V152.36Zm0,36.78c0,8.14,4.14,14,10.36,14s10.36-5.85,10.36-14c0-7.84-4.14-13.54-10.36-13.54S185.06,181.3,185.06,189.15Z"/><path class="9535b669-8aa4-4173-a26f-04beec668523" d="M216.3,202.39h6.81V184.48c0-8.58,5.11-14.36,12.73-14.36s12.73,5.77,12.73,14.36h-5.92c0-5.33-2.74-8.88-6.81-8.88s-6.81,3.55-6.81,8.88v17.91h6.66v5.48H216.3Z"/><path class="9535b669-8aa4-4173-a26f-04beec668523" d="M253.34,195.81c0-7.62,6-12.65,15.1-12.65a15.57,15.57,0,0,1,10.06,3.55v-2.29c0-5.18-4-8.81-9.84-8.81a11.48,11.48,0,0,0-9.18,4.22l-4.14-4c3.4-3.63,6.81-5.7,13.32-5.7,9.62,0,15.76,5.92,15.76,14.28v23.46H278.5v-3.33c-2,2.44-5.18,4.07-10.06,4.07C260.67,208.61,253.34,203.5,253.34,195.81Zm25.38,0c0-4.07-3.85-7.18-9.69-7.18-6.29,0-9.77,3.11-9.77,7.18s3.48,7.33,9.77,7.33C274.88,203.13,278.73,200,278.73,195.81Z"/><path class="9535b669-8aa4-4173-a26f-04beec668523" d="M291.69,202.39h13.47v-26H291.69v-5.48h19.39v31.53h13.17v5.48H291.69Zm11.91-46c0-2.81,1.7-4.74,4.29-4.74s4.37,1.92,4.37,4.74-1.78,4.88-4.37,4.88S303.6,159.32,303.6,156.36Z"/><path class="9535b669-8aa4-4173-a26f-04beec668523" d="M364,187.81v20.06h-5.92v-20.2c0-7.25-4.14-12.06-10.36-12.06s-10.36,4.81-10.36,12.06v20.2h-5.92V187.81c0-10.58,6.51-17.69,16.28-17.69S364,177.23,364,187.81Z"/><path class="9535b669-8aa4-4173-a26f-04beec668523" d="M0,217.12v-3.7H368.49v3.7Z"/></g></g></svg>