<svg xmlns="http://www.w3.org/2000/svg" viewBox="0 0 452.79 224.75"><defs><style>.\31 2916318-02cb-4832-9a63-f4252ca65c0e{fill:#fff;}</style></defs><title>Asset 9mark</title><g id="aeb7c723-4905-431a-bd26-c4ccd6b4faa9" data-name="Layer 2"><g id="b8f112d8-a24a-4173-81ff-b5db50861226" data-name="Layer 6"><path class="12916318-02cb-4832-9a63-f4252ca65c0e" d="M32.56.74h5.92l4.07,42.55,6.29-24.05h5.92l6.29,24.05L65.12.74H71L64.9,56.24H59.5L51.8,27.9,44.1,56.24H38.7Z"/><path class="12916318-02cb-4832-9a63-f4252ca65c0e" d="M75.51,37.67c0-11.47,6.66-19.17,16.72-19.17,9.47,0,16.21,7.47,16.21,19.17,0,1.11-.07,2.37-.15,3.18H81.43c.59,6.36,5.7,10.66,10.8,10.66,5.77,0,9.33-2.81,11.92-5.11L108,50.25C104.22,54,99.86,57,92.23,57,82.17,57,75.51,49.29,75.51,37.67Zm27-2.29C102.67,29.6,98.38,24,92.23,24s-10.66,5.11-10.8,11.4Z"/><path class="12916318-02cb-4832-9a63-f4252ca65c0e" d="M113.06,13.91a4.29,4.29,0,0,0,4.51-4.29c-3.26.3-4.74-2.29-4.74-5A4.34,4.34,0,0,1,117.27,0c2.74,0,5.18,2,5.18,6.66,0,5.4-3.7,10-9.4,10Z"/><path class="12916318-02cb-4832-9a63-f4252ca65c0e" d="M120.17,50.77H127V32.86c0-8.58,5.11-14.36,12.73-14.36s12.73,5.77,12.73,14.36h-5.92c0-5.33-2.74-8.88-6.81-8.88s-6.81,3.55-6.81,8.88V50.77h6.66v5.48H120.17Z"/><path class="12916318-02cb-4832-9a63-f4252ca65c0e" d="M159.09,37.67c0-11.47,6.66-19.17,16.72-19.17C185.29,18.5,192,26,192,37.67c0,1.11-.07,2.37-.15,3.18H165c.59,6.36,5.7,10.66,10.8,10.66,5.77,0,9.33-2.81,11.92-5.11l3.85,3.85C187.8,54,183.44,57,175.81,57,165.75,57,159.09,49.29,159.09,37.67Zm27-2.29C186.25,29.6,182,24,175.81,24s-10.66,5.11-10.8,11.4Z"/><path class="12916318-02cb-4832-9a63-f4252ca65c0e" d="M263.06,36.19V56.24h-5.92V36C257.14,28.79,253,24,246.78,24S236.42,28.79,236.42,36v20.2H230.5V36.19c0-10.58,6.51-17.69,16.28-17.69S263.06,25.61,263.06,36.19Z"/><path class="12916318-02cb-4832-9a63-f4252ca65c0e" d="M270.95,38c0-11.69,6.51-19.46,16.28-19.46S303.51,26.27,303.51,38c0,11.4-6.51,19-16.28,19S270.95,49.36,270.95,38Zm26.64,0c0-8.36-4.14-14-10.36-14s-10.36,5.63-10.36,14c0,8.14,4.14,13.54,10.36,13.54S297.59,46.11,297.59,38Z"/><path class="12916318-02cb-4832-9a63-f4252ca65c0e" d="M315.07,44V24.72h-6.88V19.24h6.88V6.88H321V19.24h12.28v5.48H321V44c0,5,2.52,7.55,6.22,7.55,3,0,5.77-1.33,6.73-6.07l5.33.67c-.89,6.51-5.7,10.88-12.06,10.88C320,57,315.07,52.32,315.07,44Z"/><path class="12916318-02cb-4832-9a63-f4252ca65c0e" d="M29.6,65.49v-3.7H341.49v3.7Z"/><path class="12916318-02cb-4832-9a63-f4252ca65c0e" d="M122.84,125.77h13.47v-26H122.84V94.24h19.39v31.53H155.4v5.48H122.84Zm11.92-46c0-2.81,1.7-4.74,4.29-4.74s4.37,1.92,4.37,4.74-1.78,4.88-4.37,4.88S134.75,82.7,134.75,79.74Z"/><path class="12916318-02cb-4832-9a63-f4252ca65c0e" d="M195.2,111.19v20.06h-5.92V111c0-7.25-4.14-12.06-10.36-12.06s-10.36,4.81-10.36,12.06v20.2h-5.92V111.19c0-10.58,6.51-17.69,16.28-17.69S195.2,100.61,195.2,111.19Z"/><path class="12916318-02cb-4832-9a63-f4252ca65c0e" d="M233.67,75.74h5.92v33.45l15.17-14.95h7.7l-12.88,12.88,14.8,24.13h-7l-12-20-5.85,5.85v14.13h-5.92Z"/><path class="12916318-02cb-4832-9a63-f4252ca65c0e" d="M268.13,119.18c0-7.62,6-12.66,15.1-12.66a15.57,15.57,0,0,1,10.06,3.55v-2.29c0-5.18-4-8.81-9.84-8.81a11.48,11.48,0,0,0-9.18,4.22l-4.14-4c3.4-3.63,6.81-5.7,13.32-5.7,9.62,0,15.76,5.92,15.76,14.28v23.46h-5.92v-3.33c-2,2.44-5.18,4.07-10.06,4.07C275.45,132,268.13,126.88,268.13,119.18Zm25.38,0c0-4.07-3.85-7.18-9.7-7.18-6.29,0-9.77,3.11-9.77,7.18s3.48,7.33,9.77,7.33C289.66,126.51,293.51,123.33,293.51,119.18Z"/><path class="12916318-02cb-4832-9a63-f4252ca65c0e" d="M340.57,111.19v20.06h-5.92V111c0-7.25-4.14-12.06-10.36-12.06s-10.36,4.81-10.36,12.06v20.2H308V111.19c0-10.58,6.51-17.69,16.28-17.69S340.57,100.61,340.57,111.19Z"/><path class="12916318-02cb-4832-9a63-f4252ca65c0e" d="M347.83,119.85l5.48-1.26c1,5,4.51,7.92,8.58,7.92,4.51,0,7.47-2.52,7.47-6.22,0-5.11-5.18-5.33-10.73-6.81-5.11-1.41-8.66-4.59-8.66-9.62,0-6.22,5.18-10.36,11.91-10.36,7.25,0,11.25,3.7,12.43,10l-5.48,1.18c-.81-3.4-2.66-5.7-7-5.7-3.18,0-6,1.92-6,4.88,0,3.63,4.66,4,10.88,5.92,5.25,1.63,8.51,5,8.51,10.51,0,7-5.33,11.69-13.4,11.69C354.64,132,348.65,127.1,347.83,119.85Z"/><path class="12916318-02cb-4832-9a63-f4252ca65c0e" d="M382.55,119.18c0-7.62,6-12.66,15.1-12.66a15.57,15.57,0,0,1,10.06,3.55v-2.29c0-5.18-4-8.81-9.84-8.81a11.48,11.48,0,0,0-9.18,4.22l-4.14-4c3.4-3.63,6.81-5.7,13.32-5.7,9.62,0,15.76,5.92,15.76,14.28v23.46h-5.92v-3.33c-2,2.44-5.18,4.07-10.06,4.07C389.88,132,382.55,126.88,382.55,119.18Zm25.38,0c0-4.07-3.85-7.18-9.7-7.18-6.29,0-9.77,3.11-9.77,7.18s3.48,7.33,9.77,7.33C404.09,126.51,407.94,123.33,407.94,119.18Z"/><path class="12916318-02cb-4832-9a63-f4252ca65c0e" d="M420.9,119.85l5.48-1.26c1,5,4.51,7.92,8.58,7.92,4.51,0,7.47-2.52,7.47-6.22,0-5.11-5.18-5.33-10.73-6.81-5.11-1.41-8.66-4.59-8.66-9.62,0-6.22,5.18-10.36,11.91-10.36,7.25,0,11.25,3.7,12.43,10l-5.48,1.18c-.81-3.4-2.66-5.7-7-5.7-3.18,0-6,1.92-6,4.88,0,3.63,4.66,4,10.88,5.92,5.25,1.63,8.51,5,8.51,10.51,0,7-5.33,11.69-13.4,11.69C427.71,132,421.71,127.1,420.9,119.85Z"/><path class="12916318-02cb-4832-9a63-f4252ca65c0e" d="M118.4,140.49v-3.7h334.4v3.7Z"/><path class="12916318-02cb-4832-9a63-f4252ca65c0e" d="M4.44,194.18c0-7.62,6-12.66,15.1-12.66a15.57,15.57,0,0,1,10.06,3.55v-2.29c0-5.18-4-8.81-9.84-8.81a11.48,11.48,0,0,0-9.18,4.22l-4.14-4c3.4-3.63,6.81-5.7,13.32-5.7,9.62,0,15.76,5.92,15.76,14.28v23.46H29.6v-3.33c-2,2.44-5.18,4.07-10.06,4.07C11.77,207,4.44,201.88,4.44,194.18Zm25.38,0c0-4.07-3.85-7.18-9.7-7.18-6.29,0-9.77,3.11-9.77,7.18s3.48,7.33,9.77,7.33C26,201.51,29.82,198.33,29.82,194.18Z"/><path class="12916318-02cb-4832-9a63-f4252ca65c0e" d="M76.88,186.19v20.06H71V186C71,178.79,66.82,174,60.6,174S50.24,178.79,50.24,186v20.2H44.32V186.19c0-10.58,6.51-17.69,16.28-17.69S76.88,175.61,76.88,186.19Z"/><path class="12916318-02cb-4832-9a63-f4252ca65c0e" d="M94.68,202.62,80.62,169.24h6.51l11,26.12,9.25-26.12h6.51l-21.09,55.5H86.39Z"/><path class="12916318-02cb-4832-9a63-f4252ca65c0e" d="M119.36,186.19c0-11.92,3.55-17.69,11.84-17.69,4.81,0,8.88,2.59,10.29,7.1,1.41-4.51,5.48-7.1,10.29-7.1,8.29,0,11.84,5.77,11.84,17.69v20.06H157.7V186.19c0-8.73-2.07-12.21-6.66-12.21-5.25,0-6.81,5.18-6.81,12.21v20.06h-5.48V186.19c0-7-1.55-12.21-6.81-12.21-4.59,0-6.66,3.48-6.66,12.21v20.06h-5.92Z"/><path class="12916318-02cb-4832-9a63-f4252ca65c0e" d="M171.68,188c0-11.69,6.51-19.46,16.28-19.46s16.28,7.77,16.28,19.46c0,11.4-6.51,19-16.28,19S171.68,199.36,171.68,188Zm26.64,0c0-8.36-4.14-14-10.36-14s-10.36,5.63-10.36,14c0,8.14,4.14,13.54,10.36,13.54S198.32,196.11,198.32,188Z"/><path class="12916318-02cb-4832-9a63-f4252ca65c0e" d="M208.88,200.77h6.81V182.86c0-8.58,5.11-14.36,12.73-14.36s12.73,5.77,12.73,14.36h-5.92c0-5.33-2.74-8.88-6.81-8.88s-6.81,3.55-6.81,8.88v17.91h6.66v5.48H208.88Z"/><path class="12916318-02cb-4832-9a63-f4252ca65c0e" d="M247.79,187.67c0-11.47,6.66-19.17,16.72-19.17,9.47,0,16.21,7.47,16.21,19.17,0,1.11-.07,2.37-.15,3.18H253.71c.59,6.36,5.7,10.66,10.8,10.66,5.77,0,9.33-2.81,11.92-5.11l3.85,3.85c-3.77,3.77-8.14,6.73-15.76,6.73C254.45,207,247.79,199.29,247.79,187.67Zm27-2.29c.15-5.77-4.14-11.4-10.29-11.4s-10.66,5.11-10.8,11.4Z"/><path class="12916318-02cb-4832-9a63-f4252ca65c0e" d="M0,215.49v-3.7H285.16v3.7Z"/></g></g></svg>