<svg id="Layer_1" data-name="Layer 1" xmlns="http://www.w3.org/2000/svg" viewBox="0 0 455.584 220.745">
  <title>Artboard 5</title>
  <g>
    <path d="M32.56.74H38.48l4.07,42.553,6.29-24.052h5.921l6.29,24.052L65.122.74h5.921L64.9,56.244H59.5L51.8,27.9,44.1,56.244H38.7Z" style="fill: #fff"/>
    <path d="M75.509,37.669c0-11.471,6.66-19.167,16.725-19.167,9.473,0,16.208,7.474,16.208,19.167,0,1.11-.074,2.368-.148,3.183H81.429c.593,6.364,5.7,10.656,10.8,10.656,5.772,0,9.325-2.812,11.915-5.106L108,50.25c-3.774,3.774-8.141,6.734-15.764,6.734C82.169,56.984,75.509,49.288,75.509,37.669Zm27.012-2.294c.148-5.772-4.145-11.4-10.287-11.4-5.994,0-10.656,5.106-10.8,11.4Z" style="fill: #fff"/>
    <path d="M113.056,13.913a4.285,4.285,0,0,0,4.514-4.292c-3.256.3-4.736-2.294-4.736-4.959A4.335,4.335,0,0,1,117.273,0c2.738,0,5.181,2,5.181,6.661,0,5.4-3.7,9.99-9.4,9.99Z" style="fill: #fff"/>
    <path d="M120.174,50.768h6.809V32.858c0-8.585,5.106-14.356,12.729-14.356s12.729,5.771,12.729,14.356h-5.92c0-5.328-2.738-8.881-6.809-8.881S132.9,27.53,132.9,32.858V50.768h6.66v5.477h-19.39Z" style="fill: #fff"/>
    <path d="M159.09,37.669c0-11.471,6.66-19.167,16.725-19.167,9.473,0,16.208,7.474,16.208,19.167,0,1.11-.074,2.368-.148,3.183H165.01c.593,6.364,5.7,10.656,10.8,10.656,5.772,0,9.325-2.812,11.915-5.106l3.849,3.849c-3.774,3.774-8.141,6.734-15.764,6.734C165.75,56.984,159.09,49.288,159.09,37.669ZM186.1,35.375c.148-5.772-4.145-11.4-10.287-11.4-5.994,0-10.656,5.106-10.8,11.4Z" style="fill: #fff"/>
    <path d="M231.979.74h7.474L258.62,43.812V.74h5.92v55.5h-6.66L237.9,11.1V56.244h-5.92Z" style="fill: #fff"/>
    <path d="M272.855,37.965c0-11.692,6.513-19.463,16.281-19.463s16.281,7.771,16.281,19.463c0,11.4-6.513,19.02-16.281,19.02S272.855,49.361,272.855,37.965Zm26.642,0c0-8.362-4.145-13.987-10.36-13.987S278.775,29.6,278.775,37.965c0,8.141,4.145,13.543,10.361,13.543S299.5,46.105,299.5,37.965Z" style="fill: #fff"/>
    <path d="M316.981,43.959V24.718H310.1V19.241h6.883V6.883H322.9V19.241h12.284v5.477H322.9V43.959c0,5.032,2.516,7.549,6.216,7.549,2.96,0,5.772-1.332,6.734-6.068l5.329.666c-.889,6.513-5.7,10.879-12.063,10.879C321.866,56.984,316.981,52.322,316.981,43.959Z" style="fill: #fff"/>
    <path d="M29.6,65.493v-3.7H343.4v3.7Z" style="fill: #fff"/>
    <path d="M122.839,127.768h13.469v-26.05H122.839V96.241h19.39v31.526H155.4v5.477H122.839Zm11.915-46.031c0-2.812,1.7-4.736,4.292-4.736s4.366,1.925,4.366,4.736c0,2.961-1.776,4.885-4.366,4.885S134.754,84.7,134.754,81.736Z" style="fill: #fff"/>
    <path d="M195.2,113.188v20.056h-5.921v-20.2c0-7.253-4.145-12.063-10.36-12.063s-10.361,4.811-10.361,12.063v20.2h-5.92V113.188c0-10.582,6.513-17.687,16.281-17.687S195.2,102.606,195.2,113.188Z" style="fill: #fff"/>
    <path d="M235.154,77.74h5.921v25.31L258.17,77.74h6.883L249.29,101.348l18.427,31.9h-6.809l-15.393-26.716-4.44,6.587v20.129h-5.921Z" style="fill: #fff"/>
    <path d="M270.919,121.182c0-7.623,5.994-12.655,15.1-12.655a15.567,15.567,0,0,1,10.064,3.553v-2.295c0-5.18-4-8.807-9.842-8.807a11.475,11.475,0,0,0-9.177,4.219l-4.145-4c3.4-3.627,6.809-5.7,13.321-5.7,9.62,0,15.763,5.92,15.763,14.282v23.46H296.08v-3.33c-2,2.442-5.18,4.07-10.064,4.07C278.245,133.984,270.919,128.878,270.919,121.182Zm25.384,0c0-4.07-3.849-7.179-9.7-7.179-6.29,0-9.769,3.108-9.769,7.179,0,4.144,3.479,7.326,9.769,7.326C292.454,128.508,296.3,125.325,296.3,121.182Z" style="fill: #fff"/>
    <path d="M343.359,113.188v20.056h-5.921v-20.2c0-7.253-4.145-12.063-10.36-12.063s-10.361,4.811-10.361,12.063v20.2H310.8V113.188c0-10.582,6.513-17.687,16.281-17.687S343.359,102.606,343.359,113.188Z" style="fill: #fff"/>
    <path d="M350.623,121.848l5.477-1.259c.962,4.959,4.514,7.919,8.584,7.919,4.515,0,7.475-2.517,7.475-6.217,0-5.106-5.18-5.328-10.73-6.809-5.106-1.405-8.658-4.588-8.658-9.62,0-6.217,5.18-10.36,11.914-10.36,7.253,0,11.249,3.7,12.434,9.99l-5.477,1.185c-.814-3.4-2.664-5.7-6.957-5.7-3.182,0-5.994,1.925-5.994,4.885,0,3.626,4.662,4,10.879,5.92,5.254,1.629,8.511,5.033,8.511,10.509,0,7.031-5.329,11.693-13.4,11.693C357.432,133.984,351.437,129.1,350.623,121.848Z" style="fill: #fff"/>
    <path d="M385.344,121.182c0-7.623,5.994-12.655,15.1-12.655a15.571,15.571,0,0,1,10.065,3.553v-2.295c0-5.18-4-8.807-9.843-8.807a11.475,11.475,0,0,0-9.177,4.219l-4.145-4c3.4-3.627,6.809-5.7,13.321-5.7,9.62,0,15.763,5.92,15.763,14.282v23.46h-5.92v-3.33c-2,2.442-5.181,4.07-10.065,4.07C392.67,133.984,385.344,128.878,385.344,121.182Zm25.384,0c0-4.07-3.849-7.179-9.694-7.179-6.291,0-9.77,3.108-9.77,7.179,0,4.144,3.479,7.326,9.77,7.326C406.879,128.508,410.728,125.325,410.728,121.182Z" style="fill: #fff"/>
    <path d="M423.69,121.848l5.477-1.259c.962,4.959,4.514,7.919,8.584,7.919,4.515,0,7.475-2.517,7.475-6.217,0-5.106-5.18-5.328-10.73-6.809-5.106-1.405-8.658-4.588-8.658-9.62,0-6.217,5.18-10.36,11.914-10.36,7.253,0,11.249,3.7,12.434,9.99l-5.477,1.185c-.814-3.4-2.664-5.7-6.957-5.7-3.182,0-5.994,1.925-5.994,4.885,0,3.626,4.662,4,10.879,5.92,5.254,1.629,8.511,5.033,8.511,10.509,0,7.031-5.329,11.693-13.4,11.693C430.5,133.984,424.5,129.1,423.69,121.848Z" style="fill: #fff"/>
    <path d="M118.4,142.493v-3.7H455.584v3.7Z" style="fill: #fff"/>
    <path d="M19.02,146.74h8.437l13.1,55.5H34.561L31.378,187H15.1l-3.107,15.245H5.92Zm11.322,35.227-7.1-29.9-7.1,29.9Z" style="fill: #fff"/>
    <path d="M80.715,182.188v20.056H74.794v-20.2c0-7.253-4.145-12.063-10.36-12.063s-10.361,4.811-10.361,12.063v20.2h-5.92V182.188c0-10.582,6.513-17.687,16.281-17.687S80.715,171.606,80.715,182.188Z" style="fill: #fff"/>
    <path d="M98.517,198.618,84.455,165.241h6.513L102,191.365l9.25-26.124h6.513l-21.092,55.5H90.228Z" style="fill: #fff"/>
    <path d="M123.194,182.188c0-11.915,3.552-17.687,11.841-17.687,4.811,0,8.881,2.59,10.286,7.1,1.406-4.515,5.477-7.1,10.287-7.1,8.289,0,11.841,5.771,11.841,17.687v20.056h-5.92V182.188c0-8.732-2.072-12.211-6.661-12.211-5.254,0-6.809,5.181-6.809,12.211v20.056h-5.476V182.188c0-7.03-1.555-12.211-6.809-12.211-4.589,0-6.661,3.479-6.661,12.211v20.056h-5.92Z" style="fill: #fff"/>
    <path d="M175.512,183.965c0-11.692,6.513-19.463,16.281-19.463s16.281,7.771,16.281,19.463c0,11.4-6.513,19.02-16.281,19.02S175.512,195.361,175.512,183.965Zm26.642,0c0-8.362-4.145-13.987-10.36-13.987s-10.361,5.625-10.361,13.987c0,8.141,4.145,13.543,10.361,13.543S202.153,192.105,202.153,183.965Z" style="fill: #fff"/>
    <path d="M212.71,196.768h6.809V178.858c0-8.585,5.106-14.356,12.729-14.356s12.729,5.771,12.729,14.356h-5.92c0-5.328-2.738-8.881-6.809-8.881s-6.809,3.553-6.809,8.881v17.909h6.66v5.477H212.71Z" style="fill: #fff"/>
    <path d="M251.626,183.669c0-11.471,6.66-19.167,16.725-19.167,9.473,0,16.208,7.474,16.208,19.167,0,1.11-.074,2.368-.148,3.183H257.546c.593,6.364,5.7,10.656,10.8,10.656,5.772,0,9.325-2.812,11.915-5.106l3.849,3.849c-3.774,3.774-8.141,6.734-15.764,6.734C258.286,202.984,251.626,195.288,251.626,183.669Zm27.012-2.294c.148-5.772-4.145-11.4-10.287-11.4-5.994,0-10.656,5.106-10.8,11.4Z" style="fill: #fff"/>
    <path d="M0,211.493v-3.7H288.994v3.7Z" style="fill: #fff"/>
  </g>
</svg>
