<svg id="Layer_6" data-name="Layer 6" xmlns="http://www.w3.org/2000/svg" viewBox="0 0 25 17">
  <title>icon</title>
  <path d="M22.5,2.3a8.2,8.2,0,0,1-2.357.646,4.115,4.115,0,0,0,1.8-2.27,8.215,8.215,0,0,1-2.606,1A4.107,4.107,0,0,0,12.35,5.411,11.649,11.649,0,0,1,3.892,1.124,4.108,4.108,0,0,0,5.162,6.6,4.087,4.087,0,0,1,3.3,6.089V6.141a4.106,4.106,0,0,0,3.292,4.023,4.114,4.114,0,0,1-1.853.07,4.107,4.107,0,0,0,3.833,2.85,8.233,8.233,0,0,1-5.1,1.756A8.353,8.353,0,0,1,2.5,14.783a11.614,11.614,0,0,0,6.29,1.843A11.6,11.6,0,0,0,20.464,4.952q0-.267-0.012-0.531A8.339,8.339,0,0,0,22.5,2.3Z" style="fill: #fff"/>
</svg>
