<svg xmlns="http://www.w3.org/2000/svg" viewBox="0 0 495.7 284.9"><defs><style>.da47f634-d5ac-4522-8b91-48c44e31a219{fill:#5147ff;}</style></defs><title>Asset 1mark</title><g id="251287ac-829b-42b2-8d6a-44d6083188b7" data-name="Layer 2"><g id="fbbb665b-582b-4cce-a632-2f52c8aa0c7d" data-name="Layer 1"><g id="3273c0b3-d5c1-4aee-9b1b-5aa887566d64" data-name="7185bdad-b6a9-465d-87c6-7a40eeff56bc"><g id="0f99a93b-27be-4b4c-88f2-015f4052f578" data-name="b1bcb6e8-4f40-4897-9286-a856e041ddd2"><path class="da47f634-d5ac-4522-8b91-48c44e31a219" d="M170,2.7h26.6V8.2h-21V28.7h17.9v5.2H175.6V55.3H170Z"/><path class="da47f634-d5ac-4522-8b91-48c44e31a219" d="M200,39.1v-19h5.6V39.2c0,6.9,3.9,11.4,9.8,11.4s9.8-4.6,9.8-11.4V20.1h5.6v19c0,10-6.2,16.7-15.4,16.7S200,49.2,200,39.1Z"/><path class="da47f634-d5ac-4522-8b91-48c44e31a219" d="M243.3,43.6V25.4h-6.5V20.2h6.5V8.5h5.6V20.2h11.6v5.2H248.9V43.6c0,4.8,2.4,7.1,5.9,7.1,2.8,0,5.5-1.3,6.4-5.7l5,.6c-.8,6.2-5.4,10.3-11.4,10.3C248,55.9,243.3,51.5,243.3,43.6Z"/><path class="da47f634-d5ac-4522-8b91-48c44e31a219" d="M270.8,39.1v-19h5.6V39.2c0,6.9,3.9,11.4,9.8,11.4S296,46,296,39.2V20.1h5.6v19c0,10-6.2,16.7-15.4,16.7S270.8,49.2,270.8,39.1Z"/><path class="da47f634-d5ac-4522-8b91-48c44e31a219" d="M306.2,50h6.4V33c0-8.1,4.8-13.6,12-13.6s12,5.5,12,13.6H331c0-5-2.6-8.4-6.4-8.4s-6.4,3.4-6.4,8.4V50h6.3v5.2H306.2Z"/><path class="da47f634-d5ac-4522-8b91-48c44e31a219" d="M343.1,37.6c0-10.9,6.3-18.1,15.8-18.1,9,0,15.3,7.1,15.3,18.1,0,1-.1,2.2-.1,3H348.7c.6,6,5.4,10.1,10.2,10.1,5.5,0,8.8-2.7,11.3-4.8l3.6,3.6c-3.6,3.6-7.7,6.4-14.9,6.4C349.4,55.9,343.1,48.6,343.1,37.6Zm25.5-2.2c.1-5.5-3.9-10.8-9.7-10.8s-10.1,4.8-10.2,10.8Z"/><path class="da47f634-d5ac-4522-8b91-48c44e31a219" d="M410.6,37.9c0-11.1,6.2-18.4,15.4-18.4s15.4,7.4,15.4,18.4c0,10.8-6.2,18-15.4,18S410.6,48.7,410.6,37.9Zm25.2,0c0-7.9-3.9-13.2-9.8-13.2s-9.8,5.3-9.8,13.2c0,7.7,3.9,12.8,9.8,12.8s9.8-5.1,9.8-12.8Z"/><path class="da47f634-d5ac-4522-8b91-48c44e31a219" d="M453.1,25.4h-6.2V20.2h6.2v-8c0-7.3,4.5-12.2,11.4-12.2a11.22,11.22,0,0,1,9.7,5.7l-4.3,2.8a6.44,6.44,0,0,0-5.3-3.4c-3.5,0-5.9,2.8-5.9,7l.1,8h11.5v5.2H458.8V55.1h-5.6V25.4Z"/><path class="da47f634-d5ac-4522-8b91-48c44e31a219" d="M0,71.3H11.5c12.7,0,19.2,9,19.2,26.2s-6.6,26.2-19.2,26.2H0Zm11.6,47.3c9,0,13.7-7.5,13.7-21.1S20.6,76.4,11.6,76.4h-6v42.1Z"/><path class="da47f634-d5ac-4522-8b91-48c44e31a219" d="M36.9,106.2c0-10.9,6.3-18.1,15.8-18.1,9,0,15.3,7.1,15.3,18.1,0,1.1-.1,2.2-.1,3H42.5c.6,6,5.4,10.1,10.2,10.1,5.5,0,8.8-2.7,11.3-4.8l3.6,3.6c-3.6,3.6-7.7,6.4-14.9,6.4C43.2,124.5,36.9,117.2,36.9,106.2Zm25.6-2.1c.1-5.5-3.9-10.8-9.7-10.8s-10.1,4.8-10.2,10.8Z"/><path class="da47f634-d5ac-4522-8b91-48c44e31a219" d="M74.2,113l5.2-1.2c.9,4.7,4.3,7.5,8.1,7.5,4.3,0,7.1-2.4,7.1-5.9,0-4.8-4.9-5-10.1-6.4-4.8-1.3-8.2-4.3-8.2-9.1,0-5.9,4.9-9.8,11.3-9.8,6.9,0,10.6,3.5,11.8,9.4l-5.2,1.1c-.8-3.2-2.5-5.4-6.6-5.4-3,0-5.7,1.8-5.7,4.6,0,3.4,4.4,3.8,10.3,5.6,5,1.5,8.1,4.8,8.1,9.9,0,6.7-5,11.1-12.7,11.1C80.7,124.5,75,119.9,74.2,113Z"/><path class="da47f634-d5ac-4522-8b91-48c44e31a219" d="M106.7,118.6h12.7V94H106.7V88.8H125v29.8h12.5v5.2H106.7ZM118,75.1c0-2.7,1.6-4.5,4.1-4.5s4.1,1.8,4.1,4.5-1.7,4.6-4.2,4.6S118,77.9,118,75.1Z"/><path class="da47f634-d5ac-4522-8b91-48c44e31a219" d="M142.3,131.7a8.35,8.35,0,0,1,5.3-7.9c-3.8-1.3-6.3-3.8-6.3-8a9.79,9.79,0,0,1,4.1-7.3A15.8,15.8,0,0,1,144,102c0-8.3,5.7-13.9,14.1-13.9a16.84,16.84,0,0,1,9,2.6c.8-1.6.7-4.3.7-6.6h5.6a24,24,0,0,1-3,10.5,14.94,14.94,0,0,1,2,7.4c0,8.3-5.7,13.7-14.2,13.7-3.9,0-7.8-1.4-9.8-3.6a6,6,0,0,0-1.2,3.1c0,6,4.7,6.4,11,6.4,9.4,0,15.7,4,15.7,9.9,0,6.3-6.3,10.5-15.7,10.5S142.3,137.9,142.3,131.7Zm25.9,0c0-3-4.1-5.2-10.1-5.2s-10.2,2.1-10.2,5.1,4.1,5.2,10.2,5.2,10.1-2.2,10.1-5.1ZM166.7,102a8.29,8.29,0,0,0-7.9-8.7h-.7c-5.1,0-8.5,3.7-8.5,8.7a8.55,8.55,0,0,0,17.1,0Z"/><path class="da47f634-d5ac-4522-8b91-48c44e31a219" d="M210.7,104.8v19h-5.6V104.7c0-6.9-3.9-11.4-9.8-11.4s-9.8,4.6-9.8,11.4v19.1h-5.6v-19c0-10,6.2-16.7,15.4-16.7S210.7,94.8,210.7,104.8Z"/><path class="da47f634-d5ac-4522-8b91-48c44e31a219" d="M247.1,118.6h12.7V94H247.1V88.8h18.3v29.8h12.5v5.2H247.1Zm11.3-43.5c0-2.7,1.6-4.5,4.1-4.5s4.1,1.8,4.1,4.5-1.7,4.6-4.1,4.6-4.1-1.8-4.1-4.6Z"/><path class="da47f634-d5ac-4522-8b91-48c44e31a219" d="M315.6,104.8v19H310V104.7c0-6.9-3.9-11.4-9.8-11.4s-9.8,4.6-9.8,11.4v19.1h-5.6v-19c0-10,6.2-16.7,15.4-16.7S315.6,94.8,315.6,104.8Z"/><path class="da47f634-d5ac-4522-8b91-48c44e31a219" d="M167.9,194l5.4-1.6c1.1,5.1,5,8.5,9.7,8.5,6,0,10.1-3.4,10.1-9.6,0-12.8-23.9-8.1-23.9-25.6,0-8.1,5.5-13.6,13.8-13.6a14.15,14.15,0,0,1,13.9,11.4l-5.2,1.5c-1.4-4.6-4.9-7.7-8.8-7.7-4.8,0-8.2,3.4-8.2,8.4,0,12,23.9,7.8,23.9,25.6,0,9.3-6.3,14.8-15.8,14.8A15.36,15.36,0,0,1,167.9,194Z"/><path class="da47f634-d5ac-4522-8b91-48c44e31a219" d="M207.1,193.8V175.6h-6.5v-5.2h6.5V158.7h5.6v11.7h11.6v5.2H212.7v18.2c0,4.8,2.4,7.1,5.9,7.1,2.8,0,5.5-1.3,6.4-5.7l5,.6c-.8,6.2-5.4,10.3-11.4,10.3C211.7,206.2,207.1,201.7,207.1,193.8Z"/><path class="da47f634-d5ac-4522-8b91-48c44e31a219" d="M233.9,194c0-7.2,5.7-12,14.3-12a14.94,14.94,0,0,1,9.5,3.4v-2.2c0-4.9-3.8-8.3-9.3-8.3a10.76,10.76,0,0,0-8.7,4l-3.9-3.8c3.2-3.4,6.4-5.4,12.6-5.4,9.1,0,14.9,5.6,14.9,13.5v22.2h-5.6v-3.1c-1.9,2.3-4.9,3.9-9.5,3.9C240.9,206.2,233.9,201.3,233.9,194Zm24,0c0-3.9-3.6-6.8-9.2-6.8-6,0-9.2,2.9-9.2,6.8s3.3,6.9,9.2,6.9c5.6.1,9.3-2.9,9.2-6.9Z"/><path class="da47f634-d5ac-4522-8b91-48c44e31a219" d="M269.3,200.3h6.4V183.4c0-8.1,4.8-13.6,12-13.6s12,5.5,12,13.6h-5.6c0-5-2.6-8.4-6.4-8.4s-6.4,3.4-6.4,8.4v16.9h6.3v5.2H269.3Z"/><path class="da47f634-d5ac-4522-8b91-48c44e31a219" d="M311.2,193.8V175.6h-6.5v-5.2h6.5V158.7h5.6v11.7h11.6v5.2H316.8v18.2c0,4.8,2.4,7.1,5.9,7.1,2.8,0,5.5-1.3,6.4-5.7l5,.6c-.8,6.2-5.4,10.3-11.4,10.3C315.8,206.2,311.2,201.7,311.2,193.8Z"/><path class="da47f634-d5ac-4522-8b91-48c44e31a219" d="M337.4,180.6h32.2v5.2H337.4Z"/><path class="da47f634-d5ac-4522-8b91-48c44e31a219" d="M377.2,189.4V152.9h5.6v36.5c0,6.9,3.9,11.6,9.8,11.6s9.8-4.6,9.8-11.6V152.9H408v36.5c0,10-6.2,16.7-15.4,16.7S377.2,199.4,377.2,189.4Z"/><path class="da47f634-d5ac-4522-8b91-48c44e31a219" d="M417.8,188.2c0-11.1,6.2-18.4,15.4-18.4s15.4,7.4,15.4,18.4c0,10.8-6.2,18-15.4,18a11.63,11.63,0,0,1-9.8-5.6V223h-5.6Zm25.2,0c0-7.7-3.9-13.2-9.8-13.2s-9.8,5.5-9.8,13.2c0,7.4,3.9,12.8,9.8,12.8S443,195.6,443,188.2Z"/><path class="da47f634-d5ac-4522-8b91-48c44e31a219" d="M453.5,194.7l5.2-1.2c.9,4.7,4.3,7.5,8.1,7.5,4.3,0,7.1-2.4,7.1-5.9,0-4.8-4.9-5-10.1-6.4-4.8-1.3-8.2-4.3-8.2-9.1,0-5.9,4.9-9.8,11.3-9.8,6.9,0,10.6,3.5,11.8,9.5l-5.2,1.1c-.8-3.2-2.5-5.4-6.6-5.4-3,0-5.7,1.8-5.7,4.6,0,3.4,4.4,3.8,10.3,5.6,5,1.5,8,4.8,8,9.9,0,6.6-5,11.1-12.7,11.1C459.9,206.2,454.2,201.5,453.5,194.7Z"/><path class="da47f634-d5ac-4522-8b91-48c44e31a219" d="M487.5,174.2c0-2.7,1.6-4.5,4.1-4.5s4.1,1.8,4.1,4.5-1.7,4.6-4.1,4.6S487.5,177,487.5,174.2Zm0,27.3c0-2.7,1.6-4.5,4.1-4.5s4.1,1.8,4.1,4.5-1.7,4.6-4.1,4.6-4.1-1.8-4.1-4.6Z"/><path class="da47f634-d5ac-4522-8b91-48c44e31a219" d="M70.3,260.4c6.1-4.3,12.1-7.5,12.1-14.1,0-5.4-3.2-10.2-9-10.2a9.86,9.86,0,0,0-9.7,7.9l-5.1-1.4c1.8-7.1,7.4-11.7,14.8-11.7,9.2,0,14.7,7.1,14.7,15.4,0,9.6-8.1,13.5-14.9,18.5-4.9,3.6-9.3,8.5-9.3,14.1H88.1v5.2h-30C58,272.7,60.9,266.9,70.3,260.4Z"/><path class="da47f634-d5ac-4522-8b91-48c44e31a219" d="M94.6,257.8c0-19.1,6-27,16.2-27s16,7.8,16,27-6,27-16,27S94.6,277,94.6,257.8Zm26.6,0c0-15.5-4.1-21.8-10.4-21.8s-10.6,6.2-10.6,21.8,4.2,21.8,10.6,21.8S121.2,273.4,121.2,257.8Zm-14.6,0c0-2.7,1.6-4.5,4.1-4.5s4.1,1.8,4.1,4.5-1.7,4.6-4.1,4.6-4.1-1.8-4.1-4.6Z"/><path class="da47f634-d5ac-4522-8b91-48c44e31a219" d="M133.4,278.9h12.5V238.6l-10.2,8.5-3.2-3.9,13.7-11.6h5.3v47.3H164v5.2H133.4Z"/><path class="da47f634-d5ac-4522-8b91-48c44e31a219" d="M192.4,237H167.8v-5.5h30.6V237l-19.1,47h-6Z"/><path class="da47f634-d5ac-4522-8b91-48c44e31a219" d="M236.9,231.6h16.5c8.6,0,14.4,5.7,14.4,14.3s-5.7,14.3-14.4,14.3h-3.5l20.8,23.9h-7.4l-20.7-23.9v23.9H237V231.6ZM253.3,255c5.2,0,8.8-3.6,8.8-9.1s-3.5-9.1-8.8-9.1H242.4V255Z"/><path class="da47f634-d5ac-4522-8b91-48c44e31a219" d="M272.9,266.5c0-10.9,6.3-18.1,15.8-18.1,9,0,15.3,7.1,15.3,18.1,0,1-.1,2.2-.1,3H278.5c.6,6,5.4,10.1,10.2,10.1,5.5,0,8.8-2.7,11.3-4.8l3.6,3.6c-3.6,3.6-7.7,6.4-14.9,6.4C279.2,284.8,272.9,277.5,272.9,266.5Zm25.5-2.2c.1-5.5-3.9-10.8-9.7-10.8s-10.1,4.8-10.2,10.8Z"/><path class="da47f634-d5ac-4522-8b91-48c44e31a219" d="M310.2,273.3l5.2-1.2c.9,4.7,4.3,7.5,8.1,7.5,4.3,0,7.1-2.4,7.1-5.9,0-4.8-4.9-5-10.1-6.4-4.8-1.3-8.2-4.3-8.2-9.1,0-5.9,4.9-9.8,11.3-9.8,6.9,0,10.6,3.5,11.8,9.5l-5.2,1.2c-.8-3.2-2.5-5.4-6.6-5.4-3,0-5.7,1.8-5.7,4.6,0,3.4,4.4,3.8,10.3,5.6,5,1.5,8,4.8,8,9.9,0,6.6-5,11.1-12.7,11.1C316.6,284.8,310.9,280.2,310.2,273.3Z"/><path class="da47f634-d5ac-4522-8b91-48c44e31a219" d="M343.2,268.1v-19h5.6v19.1c0,6.9,3.9,11.4,9.8,11.4s9.8-4.5,9.8-11.4V249.1H374v19c0,10-6.2,16.7-15.4,16.7S343.2,278.1,343.2,268.1Z"/><path class="da47f634-d5ac-4522-8b91-48c44e31a219" d="M379.6,278.9h12.5V236.8H379.6v-5.2h18.1v47.3h12.5v5.2H379.6Z"/><path class="da47f634-d5ac-4522-8b91-48c44e31a219" d="M417.6,272.5V254.3h-6.5v-5.2h6.5V237.4h5.6v11.7h11.6v5.2H423.2v18.2c0,4.8,2.4,7.1,5.9,7.1,2.8,0,5.5-1.3,6.4-5.7l5,.6c-.8,6.2-5.4,10.3-11.4,10.3C422.2,284.8,417.6,280.4,417.6,272.5Z"/><path class="da47f634-d5ac-4522-8b91-48c44e31a219" d="M446.4,273.3l5.2-1.2c.9,4.7,4.3,7.5,8.1,7.5,4.3,0,7.1-2.4,7.1-5.9,0-4.8-4.9-5-10.2-6.4-4.8-1.3-8.2-4.3-8.2-9.1,0-5.9,4.9-9.8,11.3-9.8,6.9,0,10.6,3.5,11.8,9.5l-5.2,1.2c-.8-3.2-2.5-5.4-6.6-5.4-3,0-5.7,1.8-5.7,4.6,0,3.4,4.4,3.8,10.3,5.6,5,1.5,8,4.8,8,9.9,0,6.6-5,11.1-12.7,11.1A13.12,13.12,0,0,1,446.4,273.3Z"/></g></g></g></g></svg>