<svg xmlns="http://www.w3.org/2000/svg" viewBox="0 0 495.65 292.79"><defs><style>.\38 f9d0910-ab37-4ee8-b1c1-33ace1488c81{isolation:isolate;}.\35 894607c-059e-4657-a981-60aff7878f0d{fill:#5147ff;}</style></defs><title>Asset 1mark</title><g id="7185bdad-b6a9-465d-87c6-7a40eeff56bc" data-name="Layer 2"><g id="b1bcb6e8-4f40-4897-9286-a856e041ddd2" data-name="Layer 1"><g class="8f9d0910-ab37-4ee8-b1c1-33ace1488c81"><path class="5894607c-059e-4657-a981-60aff7878f0d" d="M168,2.66h26.6V8.12h-21V28.63h17.85v5.18H173.6V55.17H168Z"/></g><g class="8f9d0910-ab37-4ee8-b1c1-33ace1488c81"><path class="5894607c-059e-4657-a981-60aff7878f0d" d="M198,39.13v-19h5.6V39.27c0,6.86,3.92,11.41,9.8,11.41s9.8-4.55,9.8-11.41V20.16h5.6v19c0,10-6.16,16.73-15.4,16.73S198,49.15,198,39.13Z"/></g><g class="8f9d0910-ab37-4ee8-b1c1-33ace1488c81"><path class="5894607c-059e-4657-a981-60aff7878f0d" d="M241.34,43.54V25.34h-6.51V20.16h6.51V8.47h5.6V20.16h11.62v5.18H246.94v18.2c0,4.76,2.38,7.14,5.88,7.14,2.8,0,5.46-1.26,6.37-5.74l5,.63c-.84,6.16-5.39,10.29-11.41,10.29C246,55.87,241.34,51.46,241.34,43.54Z"/></g><g class="8f9d0910-ab37-4ee8-b1c1-33ace1488c81"><path class="5894607c-059e-4657-a981-60aff7878f0d" d="M269.82,39.13v-19h5.6V39.27c0,6.86,3.92,11.41,9.8,11.41s9.8-4.55,9.8-11.41V20.16h5.6v19c0,10-6.16,16.73-15.4,16.73S269.82,49.15,269.82,39.13Z"/></g><g class="8f9d0910-ab37-4ee8-b1c1-33ace1488c81"><path class="5894607c-059e-4657-a981-60aff7878f0d" d="M305.22,50h6.44V33c0-8.12,4.83-13.58,12-13.58s12,5.46,12,13.58h-5.6c0-5-2.59-8.4-6.44-8.4S317.26,28,317.26,33V50h6.3v5.18H305.22Z"/></g><g class="8f9d0910-ab37-4ee8-b1c1-33ace1488c81"><path class="5894607c-059e-4657-a981-60aff7878f0d" d="M342.08,37.59c0-10.85,6.3-18.13,15.82-18.13,9,0,15.33,7.07,15.33,18.13,0,1.05-.07,2.24-.14,3H347.68c.56,6,5.39,10.08,10.22,10.08,5.46,0,8.82-2.66,11.27-4.83l3.64,3.64c-3.57,3.57-7.7,6.37-14.91,6.37C348.38,55.87,342.08,48.58,342.08,37.59Zm25.55-2.17c.14-5.46-3.92-10.78-9.73-10.78s-10.08,4.83-10.22,10.78Z"/></g><g class="8f9d0910-ab37-4ee8-b1c1-33ace1488c81"><path class="5894607c-059e-4657-a981-60aff7878f0d" d="M409.63,37.87c0-11.06,6.16-18.41,15.4-18.41s15.4,7.35,15.4,18.41c0,10.78-6.16,18-15.4,18S409.63,48.66,409.63,37.87Zm25.2,0c0-7.91-3.92-13.23-9.8-13.23s-9.8,5.32-9.8,13.23c0,7.7,3.92,12.81,9.8,12.81S434.83,45.58,434.83,37.87Z"/></g><g class="8f9d0910-ab37-4ee8-b1c1-33ace1488c81"><path class="5894607c-059e-4657-a981-60aff7878f0d" d="M452.09,25.34h-6.23V20.16h6.23v-8C452.09,4.9,456.64,0,463.5,0a10.91,10.91,0,0,1,9.66,5.74l-4.34,2.8a6.37,6.37,0,0,0-5.32-3.36c-3.5,0-5.88,2.8-5.88,7l.07,8h11.55v5.18H457.69V55.17h-5.6Z"/></g><g class="8f9d0910-ab37-4ee8-b1c1-33ace1488c81"><path class="5894607c-059e-4657-a981-60aff7878f0d" d="M0,76.3H11.55c12.67,0,19.25,9,19.25,26.25s-6.58,26.25-19.25,26.25H0Zm11.55,47.33c9,0,13.65-7.49,13.65-21.07S20.51,81.48,11.55,81.48h-6v42.14Z"/></g><g class="8f9d0910-ab37-4ee8-b1c1-33ace1488c81"><path class="5894607c-059e-4657-a981-60aff7878f0d" d="M36.94,111.23c0-10.85,6.3-18.13,15.82-18.13,9,0,15.33,7.07,15.33,18.13,0,1.05-.07,2.24-.14,3H42.54c.56,6,5.39,10.08,10.22,10.08,5.46,0,8.82-2.66,11.27-4.83l3.64,3.64c-3.57,3.57-7.7,6.37-14.91,6.37C43.24,129.51,36.94,122.23,36.94,111.23Zm25.55-2.17c.14-5.46-3.92-10.78-9.73-10.78s-10.08,4.83-10.22,10.78Z"/></g><g class="8f9d0910-ab37-4ee8-b1c1-33ace1488c81"><path class="5894607c-059e-4657-a981-60aff7878f0d" d="M74.21,118l5.18-1.19c.91,4.69,4.27,7.49,8.12,7.49,4.27,0,7.07-2.38,7.07-5.88,0-4.83-4.9-5-10.15-6.44-4.83-1.33-8.19-4.34-8.19-9.1,0-5.88,4.9-9.8,11.27-9.8,6.86,0,10.64,3.5,11.76,9.45l-5.18,1.12c-.77-3.22-2.52-5.39-6.58-5.39-3,0-5.67,1.82-5.67,4.62,0,3.43,4.41,3.78,10.29,5.6,5,1.54,8.05,4.76,8.05,9.94,0,6.65-5,11.06-12.67,11.06C80.65,129.51,75,124.89,74.21,118Z"/></g><g class="8f9d0910-ab37-4ee8-b1c1-33ace1488c81"><path class="5894607c-059e-4657-a981-60aff7878f0d" d="M106.69,123.63h12.74V99H106.69V93.8H125v29.82h12.46v5.18h-30.8ZM118,80.08c0-2.66,1.61-4.48,4.06-4.48s4.13,1.82,4.13,4.48S124.47,84.7,122,84.7,118,82.88,118,80.08Z"/></g><g class="8f9d0910-ab37-4ee8-b1c1-33ace1488c81"><path class="5894607c-059e-4657-a981-60aff7878f0d" d="M145.29,136.65a8.36,8.36,0,0,1,5.32-7.91c-3.78-1.26-6.3-3.78-6.3-8a9.43,9.43,0,0,1,4.13-7.28A16.72,16.72,0,0,1,147,107c0-8.33,5.67-13.86,14.14-13.86a16.31,16.31,0,0,1,9,2.59c.77-1.61.7-4.34.7-6.65h5.6a23.52,23.52,0,0,1-3,10.5,15.41,15.41,0,0,1,2,7.42c0,8.26-5.67,13.72-14.21,13.72-3.85,0-7.77-1.4-9.8-3.57a5.51,5.51,0,0,0-1.19,3.08c0,6,4.69,6.37,11,6.37,9.38,0,15.68,4,15.68,9.94,0,6.3-6.3,10.5-15.68,10.5S145.29,142.88,145.29,136.65Zm25.9,0c0-3-4.06-5.18-10.08-5.18s-10.22,2.1-10.22,5.11,4.06,5.25,10.22,5.25S171.19,139.59,171.19,136.65ZM169.72,107a8.29,8.29,0,0,0-8.61-8.68c-5.11,0-8.54,3.71-8.54,8.68a8.58,8.58,0,0,0,17.15,0Z"/></g><g class="8f9d0910-ab37-4ee8-b1c1-33ace1488c81"><path class="5894607c-059e-4657-a981-60aff7878f0d" d="M213.71,109.83v19h-5.6V109.69c0-6.86-3.92-11.41-9.8-11.41s-9.8,4.55-9.8,11.41v19.11h-5.6v-19c0-10,6.16-16.73,15.4-16.73S213.71,99.82,213.71,109.83Z"/></g><g class="8f9d0910-ab37-4ee8-b1c1-33ace1488c81"><path class="5894607c-059e-4657-a981-60aff7878f0d" d="M250.11,123.63h12.74V99H250.11V93.8h18.34v29.82h12.46v5.18h-30.8Zm11.27-43.54c0-2.66,1.61-4.48,4.06-4.48s4.13,1.82,4.13,4.48-1.68,4.62-4.13,4.62S261.38,82.88,261.38,80.08Z"/></g><g class="8f9d0910-ab37-4ee8-b1c1-33ace1488c81"><path class="5894607c-059e-4657-a981-60aff7878f0d" d="M318.61,109.83v19H313V109.69c0-6.86-3.92-11.41-9.8-11.41s-9.8,4.55-9.8,11.41v19.11h-5.6v-19c0-10,6.16-16.73,15.4-16.73S318.61,99.82,318.61,109.83Z"/></g><g class="8f9d0910-ab37-4ee8-b1c1-33ace1488c81"><path class="5894607c-059e-4657-a981-60aff7878f0d" d="M165.9,199l5.39-1.61c1.12,5.11,5,8.54,9.66,8.54,6,0,10.15-3.43,10.15-9.59,0-12.81-23.94-8.12-23.94-25.55,0-8.12,5.53-13.58,13.79-13.58a14.14,14.14,0,0,1,13.93,11.41l-5.18,1.47c-1.4-4.62-4.9-7.7-8.75-7.7-4.83,0-8.19,3.36-8.19,8.4,0,12,23.94,7.84,23.94,25.55,0,9.31-6.3,14.77-15.75,14.77A15.44,15.44,0,0,1,165.9,199Z"/></g><g class="8f9d0910-ab37-4ee8-b1c1-33ace1488c81"><path class="5894607c-059e-4657-a981-60aff7878f0d" d="M205.11,198.83v-18.2H198.6v-5.18h6.51V163.75h5.6v11.69h11.62v5.18H210.71v18.2c0,4.76,2.38,7.14,5.88,7.14,2.8,0,5.46-1.26,6.37-5.74l5,.63c-.84,6.16-5.39,10.29-11.41,10.29C209.73,211.15,205.11,206.74,205.11,198.83Z"/></g><g class="8f9d0910-ab37-4ee8-b1c1-33ace1488c81"><path class="5894607c-059e-4657-a981-60aff7878f0d" d="M233.94,199c0-7.21,5.67-12,14.28-12a14.73,14.73,0,0,1,9.52,3.36v-2.17c0-4.9-3.78-8.33-9.31-8.33a10.86,10.86,0,0,0-8.68,4l-3.92-3.78c3.22-3.43,6.44-5.39,12.6-5.39,9.1,0,14.91,5.6,14.91,13.51v22.19h-5.6V207.3c-1.89,2.31-4.9,3.85-9.52,3.85C240.87,211.15,233.94,206.32,233.94,199Zm24,0c0-3.85-3.64-6.79-9.17-6.79-6,0-9.24,2.94-9.24,6.79s3.29,6.93,9.24,6.93C254.31,206,258,203,258,199Z"/></g><g class="8f9d0910-ab37-4ee8-b1c1-33ace1488c81"><path class="5894607c-059e-4657-a981-60aff7878f0d" d="M269.32,205.27h6.44V188.32c0-8.12,4.83-13.58,12-13.58s12,5.46,12,13.58h-5.6c0-5-2.59-8.4-6.44-8.4s-6.44,3.36-6.44,8.4v16.94h6.3v5.18H269.32Z"/></g><g class="8f9d0910-ab37-4ee8-b1c1-33ace1488c81"><path class="5894607c-059e-4657-a981-60aff7878f0d" d="M311.21,198.83v-18.2H304.7v-5.18h6.51V163.75h5.6v11.69h11.62v5.18H316.81v18.2c0,4.76,2.38,7.14,5.88,7.14,2.8,0,5.46-1.26,6.37-5.74l5,.63c-.84,6.16-5.39,10.29-11.41,10.29C315.83,211.15,311.21,206.74,311.21,198.83Z"/></g><g class="8f9d0910-ab37-4ee8-b1c1-33ace1488c81"><path class="5894607c-059e-4657-a981-60aff7878f0d" d="M337.35,185.59h32.2v5.18h-32.2Z"/></g><g class="8f9d0910-ab37-4ee8-b1c1-33ace1488c81"><path class="5894607c-059e-4657-a981-60aff7878f0d" d="M377.2,194.42V157.94h5.6v36.48c0,6.93,3.92,11.55,9.8,11.55s9.8-4.62,9.8-11.55V157.94H408v36.48c0,10-6.16,16.73-15.4,16.73S377.2,204.43,377.2,194.42Z"/><path class="5894607c-059e-4657-a981-60aff7878f0d" d="M417.8,193.15c0-11.06,6.16-18.41,15.4-18.41s15.4,7.35,15.4,18.41c0,10.78-6.16,18-15.4,18a11.56,11.56,0,0,1-9.8-5.6v22.4h-5.6Zm25.2,0c0-7.7-3.92-13.23-9.8-13.23s-9.8,5.53-9.8,13.23c0,7.42,3.92,12.81,9.8,12.81S443,200.58,443,193.15Z"/></g><g class="8f9d0910-ab37-4ee8-b1c1-33ace1488c81"><path class="5894607c-059e-4657-a981-60aff7878f0d" d="M453.45,199.67l5.18-1.19c.91,4.69,4.27,7.49,8.12,7.49,4.27,0,7.07-2.38,7.07-5.88,0-4.83-4.9-5-10.15-6.44-4.83-1.33-8.19-4.34-8.19-9.1,0-5.88,4.9-9.8,11.27-9.8,6.86,0,10.64,3.5,11.76,9.45l-5.18,1.12c-.77-3.22-2.52-5.39-6.58-5.39-3,0-5.67,1.82-5.67,4.62,0,3.43,4.41,3.78,10.29,5.6,5,1.54,8.05,4.76,8.05,9.94,0,6.65-5,11.06-12.67,11.06C459.89,211.15,454.22,206.53,453.45,199.67Z"/></g><g class="8f9d0910-ab37-4ee8-b1c1-33ace1488c81"><path class="5894607c-059e-4657-a981-60aff7878f0d" d="M487.46,179.22c0-2.66,1.61-4.48,4.06-4.48s4.13,1.82,4.13,4.48-1.68,4.62-4.13,4.62S487.46,182,487.46,179.22Zm0,27.3c0-2.66,1.61-4.48,4.06-4.48s4.13,1.82,4.13,4.48-1.68,4.62-4.13,4.62S487.46,209.33,487.46,206.53Z"/></g><g class="8f9d0910-ab37-4ee8-b1c1-33ace1488c81"><path class="5894607c-059e-4657-a981-60aff7878f0d" d="M68.25,268.35c6.09-4.34,12.11-7.49,12.11-14.07,0-5.39-3.22-10.22-9-10.22A9.87,9.87,0,0,0,61.67,252l-5.11-1.4c1.82-7.14,7.42-11.69,14.77-11.69C80.5,238.88,86,246,86,254.28c0,9.59-8.05,13.51-14.91,18.48-4.9,3.57-9.31,8.47-9.31,14.14H86v5.18H56C56,280.67,58.87,274.86,68.25,268.35Z"/></g><g class="8f9d0910-ab37-4ee8-b1c1-33ace1488c81"><path class="5894607c-059e-4657-a981-60aff7878f0d" d="M92.57,265.83c0-19.11,6-27,16.17-27s16,7.84,16,27-6,27-16,27S92.57,284.95,92.57,265.83Zm26.6,0c0-15.54-4.13-21.77-10.43-21.77s-10.57,6.23-10.57,21.77,4.2,21.77,10.57,21.77S119.17,281.38,119.17,265.83Zm-14.56-.07c0-2.66,1.61-4.48,4.06-4.48s4.13,1.82,4.13,4.48-1.68,4.62-4.13,4.62S104.61,268.56,104.61,265.76Z"/></g><g class="8f9d0910-ab37-4ee8-b1c1-33ace1488c81"><path class="5894607c-059e-4657-a981-60aff7878f0d" d="M131.4,286.91h12.53V246.58l-10.22,8.47-3.22-3.85,13.72-11.62h5.32v47.33H162v5.18H131.4Z"/></g><g class="8f9d0910-ab37-4ee8-b1c1-33ace1488c81"><path class="5894607c-059e-4657-a981-60aff7878f0d" d="M190.38,245H165.81v-5.46H196.4V245l-19.11,47h-6Z"/></g><g class="8f9d0910-ab37-4ee8-b1c1-33ace1488c81"><path class="5894607c-059e-4657-a981-60aff7878f0d" d="M234.89,239.58h16.45c8.61,0,14.35,5.74,14.35,14.28s-5.74,14.28-14.35,14.28h-3.5l20.79,23.94h-7.42l-20.72-23.87v23.87h-5.6ZM251.34,263c5.25,0,8.75-3.64,8.75-9.1s-3.5-9.1-8.75-9.1H240.49V263Z"/></g><g class="8f9d0910-ab37-4ee8-b1c1-33ace1488c81"><path class="5894607c-059e-4657-a981-60aff7878f0d" d="M270.89,274.51c0-10.85,6.3-18.13,15.82-18.13,9,0,15.33,7.07,15.33,18.13,0,1.05-.07,2.24-.14,3H276.49c.56,6,5.39,10.08,10.22,10.08,5.46,0,8.82-2.66,11.27-4.83l3.64,3.64c-3.57,3.57-7.7,6.37-14.91,6.37C277.19,292.79,270.89,285.5,270.89,274.51Zm25.55-2.17c.14-5.46-3.92-10.78-9.73-10.78s-10.08,4.83-10.22,10.78Z"/></g><g class="8f9d0910-ab37-4ee8-b1c1-33ace1488c81"><path class="5894607c-059e-4657-a981-60aff7878f0d" d="M308.17,281.3l5.18-1.19c.91,4.69,4.27,7.49,8.12,7.49,4.27,0,7.07-2.38,7.07-5.88,0-4.83-4.9-5-10.15-6.44-4.83-1.33-8.19-4.34-8.19-9.1,0-5.88,4.9-9.8,11.27-9.8,6.86,0,10.64,3.5,11.76,9.45L328.05,267c-.77-3.22-2.52-5.39-6.58-5.39-3,0-5.67,1.82-5.67,4.62,0,3.43,4.41,3.78,10.29,5.6,5,1.54,8.05,4.76,8.05,9.94,0,6.65-5,11.06-12.67,11.06C314.61,292.79,308.94,288.17,308.17,281.3Z"/></g><g class="8f9d0910-ab37-4ee8-b1c1-33ace1488c81"><path class="5894607c-059e-4657-a981-60aff7878f0d" d="M341.22,276.05v-19h5.6v19.11c0,6.86,3.92,11.41,9.8,11.41s9.8-4.55,9.8-11.41V257.08H372v19c0,10-6.16,16.73-15.4,16.73S341.22,286.07,341.22,276.05Z"/></g><g class="8f9d0910-ab37-4ee8-b1c1-33ace1488c81"><path class="5894607c-059e-4657-a981-60aff7878f0d" d="M377.57,286.91H390.1V244.76H377.57v-5.18H395.7v47.33h12.46v5.18H377.57Z"/></g><g class="8f9d0910-ab37-4ee8-b1c1-33ace1488c81"><path class="5894607c-059e-4657-a981-60aff7878f0d" d="M416.58,280.46v-18.2h-6.51v-5.18h6.51V245.39h5.6v11.69H433.8v5.18H422.18v18.2c0,4.76,2.38,7.14,5.88,7.14,2.8,0,5.46-1.26,6.37-5.74l5,.63c-.84,6.16-5.39,10.29-11.41,10.29C421.2,292.79,416.58,288.38,416.58,280.46Z"/></g><g class="8f9d0910-ab37-4ee8-b1c1-33ace1488c81"><path class="5894607c-059e-4657-a981-60aff7878f0d" d="M445.42,281.3l5.18-1.19c.91,4.69,4.27,7.49,8.12,7.49,4.27,0,7.07-2.38,7.07-5.88,0-4.83-4.9-5-10.15-6.44-4.83-1.33-8.19-4.34-8.19-9.1,0-5.88,4.9-9.8,11.27-9.8,6.86,0,10.64,3.5,11.76,9.45L465.3,267c-.77-3.22-2.52-5.39-6.58-5.39-3,0-5.67,1.82-5.67,4.62,0,3.43,4.41,3.78,10.29,5.6,5,1.54,8.05,4.76,8.05,9.94,0,6.65-5,11.06-12.67,11.06C451.86,292.79,446.19,288.17,445.42,281.3Z"/></g></g></g></svg>