<?xml version="1.0" encoding="utf-8"?>
<!-- Generator: Adobe Illustrator 19.2.1, SVG Export Plug-In . SVG Version: 6.00 Build 0)  -->
<svg version="1.1" id="Layer_1" xmlns="http://www.w3.org/2000/svg" xmlns:xlink="http://www.w3.org/1999/xlink" x="0px" y="0px"
	 viewBox="0 0 70 28" style="enable-background:new 0 0 70 28;" xml:space="preserve">
<style type="text/css">
	.st0{fill:#FFFFFF;}
</style>
<title>Artboard 76</title>
<g>
	<path class="st0" d="M55.2,2h-3.6l-2.6,6.2l4.1,8.7h-6.4l-0.5,1.4h7.6l3.8,8.1h11c-2.3-1-3.8-4.4-5-6.8L55.2,2z"/>
	<path class="st0" d="M26.8,2h-3.9c2.3,1.6,3.9,3,3.9,8.6v15.9H48l-2.8-5.9c-1.6,2.5-4.7,5-10.2,5V14.8c0,0,2.8,0.8,5.5,4.9V8.8
		c-2.8,4.1-5.5,4.7-5.5,4.7V2.9c6,0,8.8,2.9,10.3,5.4L48,2H26.8z"/>
	<path class="st0" d="M24.9,14.1L13.7,2H1.4c1.7,1,4.1,2.6,4.1,7.6v9.6c0.1,3-1.4,5.8-3.9,7.3h9c-2.5-1.5-4-4.3-3.9-7.3V6.8
		l18.1,19.7V14.1z"/>
	<path class="st0" d="M59.3,3.3c0-1,0.8-1.8,1.9-1.8c0,0,0,0,0,0c1,0,1.8,0.9,1.8,1.9s-0.9,1.8-1.9,1.8C60.1,5.2,59.3,4.3,59.3,3.3z
		 M62.7,3.3c0.1-0.8-0.4-1.6-1.3-1.7c-0.8-0.1-1.6,0.4-1.7,1.3c0,0.2,0,0.3,0,0.5c0.1,0.8,0.9,1.4,1.7,1.3C62.1,4.5,62.6,4,62.7,3.3
		z M60.5,2.4h0.7C61.7,2.4,62,2.6,62,3l0,0c0,0.2-0.1,0.4-0.3,0.5l0.4,0.7h-0.5l-0.4-0.7h-0.1v0.7h-0.5L60.5,2.4z M61.2,3.2
		c0.2,0,0.3-0.1,0.3-0.2l0,0c0-0.2-0.1-0.2-0.3-0.2h-0.2v0.4L61.2,3.2z"/>
</g>
</svg>
