<svg xmlns="http://www.w3.org/2000/svg" viewBox="0 0 290.69 143.75"><defs><style>.\30 185b5d1-f4ef-48a5-ae91-825d2880c802{fill:#fff;}</style></defs><title>Asset 8mark</title><g id="00c2eb6c-a7f2-49af-a4b2-beea5637b0df" data-name="Layer 2"><g id="c498559c-3d7f-498a-81d6-bfcd42e884fa" data-name="Layer 6"><path class="0185b5d1-f4ef-48a5-ae91-825d2880c802" d="M5.92,0h5.55L25.16,39.08,38.85,0H44.4V55.5H38.48V15L28.12,48.7H22.2L11.84,15V55.5H5.92Z"/><path class="0185b5d1-f4ef-48a5-ae91-825d2880c802" d="M52.76,37.22c0-11.69,6.51-19.46,16.28-19.46s16.28,7.77,16.28,19.46c0,11.4-6.51,19-16.28,19S52.76,48.62,52.76,37.22Zm26.64,0c0-8.36-4.14-14-10.36-14s-10.36,5.63-10.36,14c0,8.14,4.14,13.54,10.36,13.54S79.4,45.37,79.4,37.22Z"/><path class="0185b5d1-f4ef-48a5-ae91-825d2880c802" d="M125.77,35.45V55.5h-5.92V35.3c0-7.25-4.14-12.06-10.36-12.06S99.13,28,99.13,35.3V55.5H93.21V35.45c0-10.58,6.51-17.69,16.28-17.69S125.77,24.87,125.77,35.45Z"/><path class="0185b5d1-f4ef-48a5-ae91-825d2880c802" d="M133.51,36.93c0-11.47,6.66-19.17,16.72-19.17,9.47,0,16.21,7.47,16.21,19.17,0,1.11-.07,2.37-.15,3.18H139.43c.59,6.37,5.7,10.66,10.8,10.66,5.77,0,9.33-2.81,11.92-5.11L166,49.51c-3.77,3.77-8.14,6.73-15.76,6.73C140.17,56.24,133.51,48.55,133.51,36.93Zm27-2.29c.15-5.77-4.14-11.4-10.29-11.4s-10.66,5.11-10.8,11.4Z"/><path class="0185b5d1-f4ef-48a5-ae91-825d2880c802" d="M184.08,51.88,170,18.5h6.51l11,26.12,9.25-26.12h6.51L182.23,74h-6.44Z"/><path class="0185b5d1-f4ef-48a5-ae91-825d2880c802" d="M0,64.75v-3.7H207.76v3.7Z"/><path class="0185b5d1-f4ef-48a5-ae91-825d2880c802" d="M97.9,122.22V103H91V97.5H97.9V85.14h5.92V97.5h12.28V103H103.82v19.24c0,5,2.52,7.55,6.22,7.55,3,0,5.77-1.33,6.73-6.07l5.33.67c-.89,6.51-5.7,10.88-12.06,10.88C102.79,135.24,97.9,130.58,97.9,122.22Z"/><path class="0185b5d1-f4ef-48a5-ae91-825d2880c802" d="M128.33,122.44c0-7.62,6-12.66,15.1-12.66a15.57,15.57,0,0,1,10.06,3.55V111c0-5.18-4-8.81-9.84-8.81a11.48,11.48,0,0,0-9.18,4.22l-4.14-4c3.4-3.63,6.81-5.7,13.32-5.7,9.62,0,15.76,5.92,15.76,14.28V134.5h-5.92v-3.33c-2,2.44-5.18,4.07-10.06,4.07C135.66,135.24,128.33,130.14,128.33,122.44Zm25.38,0c0-4.07-3.85-7.18-9.7-7.18-6.29,0-9.77,3.11-9.77,7.18s3.48,7.33,9.77,7.33C149.86,129.77,153.71,126.58,153.71,122.44Z"/><path class="0185b5d1-f4ef-48a5-ae91-825d2880c802" d="M166.68,129h13.25V84.48H166.68V79h19.17v50H199v5.48H166.68Z"/><path class="0185b5d1-f4ef-48a5-ae91-825d2880c802" d="M206.28,79h5.92v33.45L227.37,97.5h7.7l-12.88,12.88L237,134.5h-7l-12-20-5.85,5.85V134.5h-5.92Z"/><path class="0185b5d1-f4ef-48a5-ae91-825d2880c802" d="M240.73,123.11l5.48-1.26c1,5,4.51,7.92,8.58,7.92,4.51,0,7.47-2.52,7.47-6.22,0-5.11-5.18-5.33-10.73-6.81-5.11-1.41-8.66-4.59-8.66-9.62,0-6.22,5.18-10.36,11.91-10.36,7.25,0,11.25,3.7,12.43,10l-5.48,1.18c-.81-3.4-2.66-5.7-7-5.7-3.18,0-6,1.92-6,4.88,0,3.63,4.66,4,10.88,5.92,5.25,1.63,8.51,5,8.51,10.51,0,7-5.33,11.69-13.4,11.69C247.54,135.24,241.55,130.36,240.73,123.11Z"/><path class="0185b5d1-f4ef-48a5-ae91-825d2880c802" d="M276.11,130.36c0-2.81,1.7-4.74,4.29-4.74s4.37,1.92,4.37,4.74-1.78,4.88-4.37,4.88S276.11,133.32,276.11,130.36Z"/><path class="0185b5d1-f4ef-48a5-ae91-825d2880c802" d="M88.8,143.75v-3.7H290.69v3.7Z"/></g></g></svg>