<?xml version="1.0" encoding="utf-8"?>
<!-- Generator: Adobe Illustrator 22.0.1, SVG Export Plug-In . SVG Version: 6.00 Build 0)  -->
<svg version="1.1" id="Layer_1" xmlns="http://www.w3.org/2000/svg" xmlns:xlink="http://www.w3.org/1999/xlink" x="0px" y="0px"
	 viewBox="0 0 729.2 228.2" style="enable-background:new 0 0 729.2 228.2;" xml:space="preserve">
<style type="text/css">
	.st0{fill:#372EA9;}
	.st1{fill:none;}
	.st2{fill:none;stroke:#372EA9;stroke-width:1.25;stroke-linecap:square;stroke-miterlimit:10;stroke-dasharray:11,6;}
</style>
<title>Asset 13mark</title>
<g id="_x34_93c35a7-f01f-4fe5-ae6e-a77d2f52cea3">
	<g id="c2814490-25a7-41cc-956e-405bfe496415">
		<path class="st0" d="M2.5,138.2L2.5,138.2c1.4,0,2.5,1.1,2.5,2.5l0,0c0,1.4-1.1,2.5-2.5,2.5l0,0c-1.4,0-2.5-1.1-2.5-2.5l0,0
			C0,139.3,1.1,138.2,2.5,138.2z"/>
		<path class="st0" d="M2.5,159.4L2.5,159.4c1.4,0,2.5,1.1,2.5,2.5l0,0c0,1.4-1.1,2.5-2.5,2.5l0,0c-1.4,0-2.5-1.1-2.5-2.5l0,0
			C0,160.5,1.1,159.4,2.5,159.4z"/>
		<path class="st0" d="M2.5,180.7L2.5,180.7c1.4,0,2.5,1.1,2.5,2.5l0,0c0,1.4-1.1,2.5-2.5,2.5l0,0c-1.4,0-2.5-1.1-2.5-2.5l0,0
			C0,181.8,1.1,180.7,2.5,180.7z"/>
		<path class="st0" d="M2.5,223.2L2.5,223.2c1.4,0,2.5,1.1,2.5,2.5l0,0c0,1.4-1.1,2.5-2.5,2.5l0,0c-1.4,0-2.5-1.1-2.5-2.5l0,0
			C0,224.3,1.1,223.2,2.5,223.2z"/>
		<line class="st1" x1="2.5" y1="161.9" x2="7.9" y2="161.1"/>
		<polyline class="st2" points="13.9,160.3 364.6,109.8 718.2,77.7 		"/>
		<line class="st1" x1="721.2" y1="77.4" x2="726.7" y2="76.9"/>
		<line class="st1" x1="2.5" y1="225.7" x2="8" y2="225.5"/>
		<polyline class="st2" points="13.9,225.4 365.2,215.4 718.2,194.3 		"/>
		<line class="st1" x1="721.2" y1="194.1" x2="726.7" y2="193.8"/>
		<line class="st1" x1="2.5" y1="183.2" x2="8" y2="182.7"/>
		<polyline class="st2" points="13.9,182.2 365.2,152.2 718.2,130.6 		"/>
		<line class="st1" x1="721.2" y1="130.4" x2="726.7" y2="130"/>
		<line class="st1" x1="2.5" y1="140.7" x2="7.8" y2="139.1"/>
		<polyline class="st2" points="13.5,137.5 364.6,35.4 718.2,3.3 		"/>
		<line class="st1" x1="721.2" y1="3" x2="726.7" y2="2.5"/>
		<path class="st0" d="M726.7,0L726.7,0c1.4,0,2.5,1.1,2.5,2.5l0,0c0,1.4-1.1,2.5-2.5,2.5l0,0c-1.4,0-2.5-1.1-2.5-2.5l0,0
			C724.2,1.1,725.3,0,726.7,0z"/>
		<path class="st0" d="M726.7,74.4L726.7,74.4c1.4,0,2.5,1.1,2.5,2.5l0,0c0,1.4-1.1,2.5-2.5,2.5l0,0c-1.4,0-2.5-1.1-2.5-2.5l0,0
			C724.2,75.5,725.3,74.4,726.7,74.4z"/>
		<path class="st0" d="M726.7,127.5L726.7,127.5c1.4,0,2.5,1.1,2.5,2.5l0,0c0,1.4-1.1,2.5-2.5,2.5l0,0c-1.4,0-2.5-1.1-2.5-2.5l0,0
			C724.2,128.6,725.3,127.5,726.7,127.5z"/>
		<path class="st0" d="M726.7,191.3L726.7,191.3c1.4,0,2.5,1.1,2.5,2.5l0,0c0,1.4-1.1,2.5-2.5,2.5l0,0c-1.4,0-2.5-1.1-2.5-2.5l0,0
			C724.2,192.4,725.3,191.3,726.7,191.3z"/>
		<path class="st0" d="M364.7,32.4L364.7,32.4c1.4,0,2.5,1.1,2.5,2.5l0,0c0,1.4-1.1,2.5-2.5,2.5l0,0c-1.4,0-2.5-1.1-2.5-2.5l0,0
			C362.2,33.5,363.3,32.4,364.7,32.4z"/>
		<path class="st0" d="M364.7,106.7L364.7,106.7c1.4,0,2.5,1.1,2.5,2.5l0,0c0,1.4-1.1,2.5-2.5,2.5l0,0c-1.4,0-2.5-1.1-2.5-2.5l0,0
			C362.2,107.8,363.3,106.7,364.7,106.7z"/>
		<path class="st0" d="M364.7,149.9L364.7,149.9c1.4,0,2.5,1.1,2.5,2.5l0,0c0,1.4-1.1,2.5-2.5,2.5l0,0c-1.4,0-2.5-1.1-2.5-2.5l0,0
			C362.2,151,363.3,149.9,364.7,149.9z"/>
		<path class="st0" d="M364.7,212.6L364.7,212.6c1.4,0,2.5,1.1,2.5,2.5l0,0c0,1.4-1.1,2.5-2.5,2.5l0,0c-1.4,0-2.5-1.1-2.5-2.5l0,0
			C362.2,213.7,363.3,212.6,364.7,212.6z"/>
	</g>
</g>
</svg>
