<svg xmlns="http://www.w3.org/2000/svg" viewBox="0 0 729.18 228.18"><defs><style>.a2123bec-abd5-4450-9682-21ae1a91924c{fill:#d63e3e;}.\31 fc0de9b-43b8-41ec-a46a-e0eacbbdae74,.\32 fbd2701-b84c-4a96-8d4c-118e9da02713,.\33 ef7ba35-d9e3-4f25-ad96-f176fdc32a33,.\36 71a2fa7-d106-4db9-b29b-8b633755a8f3,.\37 0b79bf4-394e-45e3-a6da-527b304c1db7{fill:none;stroke:#d63e3e;stroke-linecap:square;stroke-miterlimit:10;stroke-width:1.25px;}.\31 fc0de9b-43b8-41ec-a46a-e0eacbbdae74{stroke-dasharray:10.98 5.99;}.\32 fbd2701-b84c-4a96-8d4c-118e9da02713{stroke-dasharray:10.91 5.95;}.\37 0b79bf4-394e-45e3-a6da-527b304c1db7{stroke-dasharray:10.93 5.96;}.\36 71a2fa7-d106-4db9-b29b-8b633755a8f3{stroke-dasharray:10.89 5.94;}</style></defs><title>Asset 13mark</title><g id="493c35a7-f01f-4fe5-ae6e-a77d2f52cea3" data-name="Layer 2"><g id="c2814490-25a7-41cc-956e-405bfe496415" data-name="Layer 6"><rect class="a2123bec-abd5-4450-9682-21ae1a91924c" y="138.16" width="5" height="5" rx="2.5" ry="2.5"/><rect class="a2123bec-abd5-4450-9682-21ae1a91924c" y="159.42" width="5" height="5" rx="2.5" ry="2.5"/><rect class="a2123bec-abd5-4450-9682-21ae1a91924c" y="180.67" width="5" height="5" rx="2.5" ry="2.5"/><rect class="a2123bec-abd5-4450-9682-21ae1a91924c" y="223.18" width="5" height="5" rx="2.5" ry="2.5"/><line class="3ef7ba35-d9e3-4f25-ad96-f176fdc32a33" x1="2.5" y1="161.92" x2="7.94" y2="161.13"/><polyline class="1fc0de9b-43b8-41ec-a46a-e0eacbbdae74" points="13.87 160.28 364.59 109.83 718.22 77.66"/><line class="3ef7ba35-d9e3-4f25-ad96-f176fdc32a33" x1="721.2" y1="77.39" x2="726.68" y2="76.89"/><line class="3ef7ba35-d9e3-4f25-ad96-f176fdc32a33" x1="2.5" y1="225.68" x2="8" y2="225.53"/><polyline class="2fbd2701-b84c-4a96-8d4c-118e9da02713" points="13.95 225.36 365.21 215.44 718.22 194.31"/><line class="3ef7ba35-d9e3-4f25-ad96-f176fdc32a33" x1="721.19" y1="194.13" x2="726.68" y2="193.8"/><line class="3ef7ba35-d9e3-4f25-ad96-f176fdc32a33" x1="2.5" y1="183.17" x2="7.98" y2="182.7"/><polyline class="70b79bf4-394e-45e3-a6da-527b304c1db7" points="13.92 182.2 365.21 152.22 718.21 130.55"/><line class="3ef7ba35-d9e3-4f25-ad96-f176fdc32a33" x1="721.19" y1="130.37" x2="726.68" y2="130.03"/><line class="3ef7ba35-d9e3-4f25-ad96-f176fdc32a33" x1="2.5" y1="140.66" x2="7.78" y2="139.13"/><polyline class="671a2fa7-d106-4db9-b29b-8b633755a8f3" points="13.49 137.47 364.59 35.44 718.24 3.27"/><line class="3ef7ba35-d9e3-4f25-ad96-f176fdc32a33" x1="721.2" y1="3" x2="726.68" y2="2.5"/><rect class="a2123bec-abd5-4450-9682-21ae1a91924c" x="724.18" width="5" height="5" rx="2.5" ry="2.5"/><rect class="a2123bec-abd5-4450-9682-21ae1a91924c" x="724.18" y="74.39" width="5" height="5" rx="2.5" ry="2.5"/><rect class="a2123bec-abd5-4450-9682-21ae1a91924c" x="724.18" y="127.53" width="5" height="5" rx="2.5" ry="2.5"/><rect class="a2123bec-abd5-4450-9682-21ae1a91924c" x="724.18" y="191.3" width="5" height="5" rx="2.5" ry="2.5"/><rect class="a2123bec-abd5-4450-9682-21ae1a91924c" x="362.16" y="32.36" width="5" height="5" rx="2.5" ry="2.5"/><rect class="a2123bec-abd5-4450-9682-21ae1a91924c" x="362.16" y="106.68" width="5" height="5" rx="2.5" ry="2.5"/><rect class="a2123bec-abd5-4450-9682-21ae1a91924c" x="362.16" y="149.87" width="5" height="5" rx="2.5" ry="2.5"/><rect class="a2123bec-abd5-4450-9682-21ae1a91924c" x="362.16" y="212.55" width="5" height="5" rx="2.5" ry="2.5"/></g></g></svg>