<svg xmlns="http://www.w3.org/2000/svg" viewBox="0 0 225.23 227.02"><defs><style>.a4ea2390-9b34-487c-b202-b042f1cb984b{fill:none;stroke:#d63e3e;stroke-linecap:square;stroke-miterlimit:10;stroke-width:1.25px;stroke-dasharray:6 4;}.\35 01aa627-8026-4632-92cd-4137d69d4f95{fill:#d63e3e;}</style></defs><title>Asset 16mark</title><g id="96e4769e-8576-468b-a4c6-b44cc6bded8d" data-name="Layer 2"><g id="239f0a51-5e39-46e7-a6a3-27a4dd232631" data-name="Layer 6"><polyline class="a4ea2390-9b34-487c-b202-b042f1cb984b" points="2.66 160.17 114.2 107.98 223 76.71"/><circle class="501aa627-8026-4632-92cd-4137d69d4f95" cx="2.76" cy="160.12" r="2.35" transform="translate(-67.61 16.27) rotate(-25.08)"/><circle class="501aa627-8026-4632-92cd-4137d69d4f95" cx="222.88" cy="76.74" r="2.35" transform="translate(-12.53 64.56) rotate(-16.04)"/><polyline class="a4ea2390-9b34-487c-b202-b042f1cb984b" points="2.86 224.68 114.2 214.26 222.95 193.42"/><circle class="501aa627-8026-4632-92cd-4137d69d4f95" cx="2.97" cy="224.67" r="2.35" transform="matrix(1, -0.09, 0.09, 1, -20.92, 1.25)"/><circle class="501aa627-8026-4632-92cd-4137d69d4f95" cx="222.83" cy="193.44" r="2.35" transform="translate(-32.42 45.38) rotate(-10.85)"/><polyline class="a4ea2390-9b34-487c-b202-b042f1cb984b" points="2.78 181.77 114.2 150.49 222.95 129.66"/><circle class="501aa627-8026-4632-92cd-4137d69d4f95" cx="2.9" cy="181.74" r="2.35" transform="translate(-49 7.54) rotate(-15.68)"/><circle class="501aa627-8026-4632-92cd-4137d69d4f95" cx="222.83" cy="129.68" r="2.35" transform="translate(-20.42 44.24) rotate(-10.85)"/><polyline class="a4ea2390-9b34-487c-b202-b042f1cb984b" points="2.26 138.34 114.2 33.59 223 2.32"/><circle class="501aa627-8026-4632-92cd-4137d69d4f95" cx="2.35" cy="138.26" r="2.35" transform="translate(-93.83 38.91) rotate(-43.1)"/><circle class="501aa627-8026-4632-92cd-4137d69d4f95" cx="222.88" cy="2.35" r="2.35" transform="matrix(0.96, -0.28, 0.28, 0.96, 8.02, 61.66)"/><circle class="501aa627-8026-4632-92cd-4137d69d4f95" cx="114.37" cy="33.5" r="2.32"/><circle class="501aa627-8026-4632-92cd-4137d69d4f95" cx="114.37" cy="107.72" r="2.32"/><circle class="501aa627-8026-4632-92cd-4137d69d4f95" cx="114.37" cy="150.22" r="2.32"/><circle class="501aa627-8026-4632-92cd-4137d69d4f95" cx="114.37" cy="214.22" r="2.32"/></g></g></svg>