<svg id="Layer_1" data-name="Layer 1" xmlns="http://www.w3.org/2000/svg" viewBox="0 0 267.123 143.753">
  <title>Artboard 4</title>
  <g>
    <path d="M5.92,0h5.551L25.162,39.075,38.853,0H44.4V55.5H38.482V15.023L28.122,48.7H22.2L11.841,15.023V55.5H5.92Z" style="fill: #fff"/>
    <path d="M52.762,37.225c0-11.692,6.513-19.463,16.281-19.463s16.281,7.771,16.281,19.463c0,11.4-6.513,19.02-16.281,19.02S52.762,48.621,52.762,37.225Zm26.642,0c0-8.362-4.145-13.987-10.36-13.987S58.682,28.862,58.682,37.225c0,8.141,4.145,13.543,10.361,13.543S79.4,45.365,79.4,37.225Z" style="fill: #fff"/>
    <path d="M125.772,35.448V55.5h-5.921V35.3c0-7.253-4.145-12.063-10.36-12.063S99.13,28.048,99.13,35.3V55.5H93.21V35.448c0-10.582,6.513-17.687,16.281-17.687S125.772,24.866,125.772,35.448Z" style="fill: #fff"/>
    <path d="M133.51,36.929c0-11.471,6.66-19.167,16.725-19.167,9.473,0,16.208,7.474,16.208,19.167,0,1.11-.074,2.368-.148,3.182H139.43c.593,6.365,5.7,10.657,10.8,10.657,5.772,0,9.325-2.812,11.915-5.106L166,49.51c-3.774,3.774-8.141,6.734-15.764,6.734C140.17,56.244,133.51,48.548,133.51,36.929Zm27.012-2.294c.148-5.772-4.145-11.4-10.287-11.4-5.994,0-10.656,5.106-10.8,11.4Z" style="fill: #fff"/>
    <path d="M184.08,51.878,170.019,18.5h6.513l11.027,26.124,9.25-26.124h6.513L182.229,74h-6.438Z" style="fill: #fff"/>
    <path d="M0,64.753v-3.7H207.759v3.7Z" style="fill: #fff"/>
    <path d="M104.784,84.477h-14.8V79h35.523v5.477H110.7V134.5h-5.92Z" style="fill: #fff"/>
    <path d="M122.824,122.441c0-7.623,5.994-12.655,15.1-12.655a15.571,15.571,0,0,1,10.065,3.553v-2.295c0-5.18-4-8.807-9.843-8.807a11.475,11.475,0,0,0-9.177,4.219l-4.145-4c3.4-3.627,6.809-5.7,13.321-5.7,9.62,0,15.763,5.92,15.763,14.282V134.5h-5.92v-3.33c-2,2.442-5.181,4.07-10.065,4.07C130.15,135.244,122.824,130.138,122.824,122.441Zm25.384,0c0-4.07-3.849-7.179-9.694-7.179-6.291,0-9.77,3.108-9.77,7.179,0,4.144,3.479,7.326,9.77,7.326C144.359,129.768,148.208,126.585,148.208,122.441Z" style="fill: #fff"/>
    <path d="M161.171,129.027h13.247V84.477H161.171V79h19.167v50.027h13.173V134.5h-32.34Z" style="fill: #fff"/>
    <path d="M200.775,79h5.92v33.45L221.867,97.5h7.7l-12.877,12.877,14.8,24.126h-6.956l-11.989-19.981-5.847,5.847V134.5h-5.92Z" style="fill: #fff"/>
    <path d="M235.229,123.107l5.477-1.259c.962,4.959,4.514,7.919,8.584,7.919,4.515,0,7.475-2.517,7.475-6.217,0-5.106-5.18-5.328-10.73-6.808-5.106-1.406-8.658-4.589-8.658-9.621,0-6.217,5.18-10.36,11.914-10.36,7.253,0,11.249,3.7,12.434,9.99l-5.477,1.185c-.814-3.4-2.664-5.7-6.957-5.7-3.182,0-5.994,1.925-5.994,4.885,0,3.626,4.662,4,10.879,5.92,5.254,1.629,8.511,5.033,8.511,10.509,0,7.031-5.329,11.693-13.4,11.693C242.038,135.244,236.043,130.359,235.229,123.107Z" style="fill: #fff"/>
    <path d="M88.8,143.753v-3.7H267.123v3.7Z" style="fill: #fff"/>
  </g>
</svg>
