<?xml version="1.0" encoding="utf-8"?>
<!-- Generator: Adobe Illustrator 22.0.1, SVG Export Plug-In . SVG Version: 6.00 Build 0)  -->
<svg version="1.1" id="Layer_1" xmlns="http://www.w3.org/2000/svg" xmlns:xlink="http://www.w3.org/1999/xlink" x="0px" y="0px"
	 viewBox="0 0 225.2 227" style="enable-background:new 0 0 225.2 227;" xml:space="preserve">
<style type="text/css">
	.st0{fill:none;stroke:#372EA9;stroke-width:1.25;stroke-linecap:square;stroke-miterlimit:10;stroke-dasharray:6,4;}
	.st1{fill:#372EA9;}
</style>
<title>Asset 16mark</title>
<g id="_x39_6e4769e-8576-468b-a4c6-b44cc6bded8d">
	<g id="_x32_39f0a51-5e39-46e7-a6a3-27a4dd232631">
		<polyline class="st0" points="2.7,160.2 114.2,108 223,76.7 		"/>
		<circle class="st1" cx="2.8" cy="160.1" r="2.4"/>
		<circle class="st1" cx="222.9" cy="76.7" r="2.4"/>
		<polyline class="st0" points="2.9,224.7 114.2,214.3 222.9,193.4 		"/>
		<circle class="st1" cx="2.3" cy="225.7" r="2.4"/>
		<circle class="st1" cx="222.8" cy="193.4" r="2.4"/>
		<polyline class="st0" points="2.8,181.8 114.2,150.5 222.9,129.7 		"/>
		<circle class="st1" cx="2.9" cy="181.7" r="2.4"/>
		<circle class="st1" cx="222.8" cy="129.7" r="2.4"/>
		<polyline class="st0" points="2.3,138.3 114.2,33.6 223,2.3 		"/>
		<circle class="st1" cx="2.4" cy="138.3" r="2.4"/>
		<circle class="st1" cx="222.6" cy="1.5" r="2.4"/>
		<circle class="st1" cx="114.4" cy="33.5" r="2.3"/>
		<circle class="st1" cx="114.4" cy="107.7" r="2.3"/>
		<circle class="st1" cx="114.4" cy="150.2" r="2.3"/>
		<circle class="st1" cx="114.4" cy="214.2" r="2.3"/>
	</g>
</g>
</svg>
