<svg xmlns="http://www.w3.org/2000/svg" viewBox="0 0 531.3 214.75"><defs><style>.c7fe0ecb-cf02-48c1-a450-adc8ea6170c8{fill:#231f20;}</style></defs><title>Asset 4mark</title><g id="81276640-762d-4086-9c32-9209e596a341" data-name="Layer 2"><g id="e1fe891a-357c-4baf-ac47-8b04d9d53269" data-name="Layer 6"><path class="c7fe0ecb-cf02-48c1-a450-adc8ea6170c8" d="M151,0h5.92l4.07,42.55,6.29-24.05h5.92l6.29,24.05L183.52,0h5.92L183.3,55.5h-5.4l-7.7-28.34L162.5,55.5h-5.4Z"/><path class="c7fe0ecb-cf02-48c1-a450-adc8ea6170c8" d="M195.67,0h5.92V23.09A11.88,11.88,0,0,1,212,17.76c8.14,0,16.28,5.92,16.28,17.69V55.5h-5.92V35.3c0-7.77-5.25-12.06-10.36-12.06s-10.36,4.29-10.36,12.06V55.5h-5.92Z"/><path class="c7fe0ecb-cf02-48c1-a450-adc8ea6170c8" d="M236.12,37.22c0-11.69,6.51-19.46,16.28-19.46s16.28,7.77,16.28,19.46c0,11.4-6.51,19-16.28,19S236.12,48.62,236.12,37.22Zm26.64,0c0-8.36-4.14-14-10.36-14S242,28.86,242,37.22c0,8.14,4.14,13.54,10.36,13.54S262.76,45.37,262.76,37.22Z"/><path class="c7fe0ecb-cf02-48c1-a450-adc8ea6170c8" d="M304.93,50h6.81V32.12c0-8.58,5.11-14.36,12.73-14.36s12.73,5.77,12.73,14.36h-5.92c0-5.33-2.74-8.88-6.81-8.88s-6.81,3.55-6.81,8.88V50h6.66V55.5H304.93Z"/><path class="c7fe0ecb-cf02-48c1-a450-adc8ea6170c8" d="M343.85,36.93c0-11.47,6.66-19.17,16.72-19.17,9.47,0,16.21,7.47,16.21,19.17,0,1.11-.07,2.37-.15,3.18H349.77c.59,6.36,5.7,10.66,10.8,10.66,5.77,0,9.33-2.81,11.92-5.11l3.85,3.85c-3.77,3.77-8.14,6.73-15.76,6.73C350.51,56.24,343.85,48.55,343.85,36.93Zm27-2.29c.15-5.77-4.14-11.4-10.29-11.4s-10.66,5.11-10.8,11.4Z"/><path class="c7fe0ecb-cf02-48c1-a450-adc8ea6170c8" d="M383.88,43.44c0-7.62,6-12.66,15.1-12.66A15.57,15.57,0,0,1,409,34.34V32c0-5.18-4-8.81-9.84-8.81A11.48,11.48,0,0,0,390,27.46l-4.14-4c3.4-3.63,6.81-5.7,13.32-5.7C408.82,17.76,415,23.68,415,32V55.5H409V52.17c-2,2.44-5.18,4.07-10.06,4.07C391.21,56.24,383.88,51.14,383.88,43.44Zm25.38,0c0-4.07-3.85-7.18-9.7-7.18-6.29,0-9.77,3.11-9.77,7.18s3.48,7.33,9.77,7.33C405.42,50.77,409.27,47.58,409.27,43.44Z"/><path class="c7fe0ecb-cf02-48c1-a450-adc8ea6170c8" d="M422.23,50h13.25V5.48H422.23V0H441.4V50h13.17V55.5H422.23Z"/><path class="c7fe0ecb-cf02-48c1-a450-adc8ea6170c8" d="M461.83,50h13.25V5.48H461.83V0H481V50h13.17V55.5H461.83Z"/><path class="c7fe0ecb-cf02-48c1-a450-adc8ea6170c8" d="M507.63,51.88,493.56,18.5h6.51l11,26.12,9.25-26.12h6.51L505.78,74h-6.44Z"/><path class="c7fe0ecb-cf02-48c1-a450-adc8ea6170c8" d="M148,64.75v-3.7H531.3v3.7Z"/><path class="c7fe0ecb-cf02-48c1-a450-adc8ea6170c8" d="M2.22,125H9V107.12c0-8.58,5.11-14.36,12.73-14.36s12.73,5.77,12.73,14.36H28.57c0-5.33-2.74-8.88-6.81-8.88s-6.81,3.55-6.81,8.88V125h6.66v5.48H2.22Z"/><path class="c7fe0ecb-cf02-48c1-a450-adc8ea6170c8" d="M41.25,113.56V93.5h5.92v20.2c0,7.25,4.14,12.06,10.36,12.06S67.9,121,67.9,113.71V93.5h5.92v20.06c0,10.58-6.51,17.69-16.28,17.69S41.25,124.14,41.25,113.56Z"/><path class="c7fe0ecb-cf02-48c1-a450-adc8ea6170c8" d="M114.75,110.45V130.5h-5.92V110.3c0-7.25-4.14-12.06-10.36-12.06S88.11,103,88.11,110.3v20.2H82.19V110.45c0-10.58,6.51-17.69,16.28-17.69S114.75,99.87,114.75,110.45Z"/><path class="c7fe0ecb-cf02-48c1-a450-adc8ea6170c8" d="M122,119.11l5.48-1.26c1,5,4.51,7.92,8.58,7.92,4.51,0,7.47-2.52,7.47-6.22,0-5.11-5.18-5.33-10.73-6.81-5.11-1.41-8.66-4.59-8.66-9.62,0-6.22,5.18-10.36,11.91-10.36,7.25,0,11.25,3.7,12.43,10L143,103.94c-.81-3.4-2.66-5.7-7-5.7-3.18,0-6,1.92-6,4.88,0,3.63,4.66,4,10.88,5.92,5.25,1.63,8.51,5,8.51,10.51,0,7-5.33,11.69-13.4,11.69C128.83,131.24,122.83,126.36,122,119.11Z"/><path class="c7fe0ecb-cf02-48c1-a450-adc8ea6170c8" d="M192.61,118.22V99h-6.88V93.5h6.88V81.14h5.92V93.5h12.28V99H198.53v19.24c0,5,2.52,7.55,6.22,7.55,3,0,5.77-1.33,6.73-6.07l5.33.67c-.89,6.51-5.7,10.88-12.06,10.88C197.5,131.24,192.61,126.58,192.61,118.22Z"/><path class="c7fe0ecb-cf02-48c1-a450-adc8ea6170c8" d="M223.08,75H229V98.09a11.88,11.88,0,0,1,10.36-5.33c8.14,0,16.28,5.92,16.28,17.69V130.5h-5.92V110.3c0-7.77-5.25-12.06-10.36-12.06S229,102.53,229,110.3v20.2h-5.92Z"/><path class="c7fe0ecb-cf02-48c1-a450-adc8ea6170c8" d="M263.38,111.93c0-11.47,6.66-19.17,16.72-19.17,9.47,0,16.21,7.47,16.21,19.17,0,1.11-.07,2.37-.15,3.18H269.3c.59,6.36,5.7,10.66,10.8,10.66,5.77,0,9.33-2.81,11.92-5.11l3.85,3.85c-3.77,3.77-8.14,6.73-15.76,6.73C270,131.24,263.38,123.55,263.38,111.93Zm27-2.29c.15-5.77-4.14-11.4-10.29-11.4s-10.66,5.11-10.8,11.4Z"/><path class="c7fe0ecb-cf02-48c1-a450-adc8ea6170c8" d="M334.79,119.11l5.48-1.26c1,5,4.51,7.92,8.58,7.92,4.51,0,7.47-2.52,7.47-6.22,0-5.11-5.18-5.33-10.73-6.81-5.11-1.41-8.66-4.59-8.66-9.62,0-6.22,5.18-10.36,11.91-10.36,7.25,0,11.25,3.7,12.43,10l-5.48,1.18c-.81-3.4-2.66-5.7-7-5.7-3.18,0-6,1.92-6,4.88,0,3.63,4.66,4,10.88,5.92,5.25,1.63,8.51,5,8.51,10.51,0,7-5.33,11.69-13.4,11.69C341.59,131.24,335.6,126.36,334.79,119.11Z"/><path class="c7fe0ecb-cf02-48c1-a450-adc8ea6170c8" d="M370.26,75h5.92V98.09a11.88,11.88,0,0,1,10.36-5.33c8.14,0,16.28,5.92,16.28,17.69V130.5H396.9V110.3c0-7.77-5.25-12.06-10.36-12.06s-10.36,4.29-10.36,12.06v20.2h-5.92Z"/><path class="c7fe0ecb-cf02-48c1-a450-adc8ea6170c8" d="M410.71,112.22c0-11.69,6.51-19.46,16.28-19.46s16.28,7.77,16.28,19.46c0,11.4-6.51,19-16.28,19S410.71,123.62,410.71,112.22Zm26.64,0c0-8.36-4.14-14-10.36-14s-10.36,5.63-10.36,14c0,8.14,4.14,13.54,10.36,13.54S437.35,120.37,437.35,112.22Z"/><path class="c7fe0ecb-cf02-48c1-a450-adc8ea6170c8" d="M447.57,93.5h6.14L459,119.85l4.37-23.24h6.81l4.51,23.24,5.18-26.35h6.14l-8.21,37h-5.11l-5.92-26.12-5.92,26.12h-5.11Z"/><path class="c7fe0ecb-cf02-48c1-a450-adc8ea6170c8" d="M0,139.75v-3.7H487.53v3.7Z"/><path class="c7fe0ecb-cf02-48c1-a450-adc8ea6170c8" d="M63.64,150h5.92v23.09a11.88,11.88,0,0,1,10.36-5.33c8.14,0,16.28,5.92,16.28,17.69V205.5H90.28V185.3c0-7.77-5.25-12.06-10.36-12.06s-10.36,4.29-10.36,12.06v20.2H63.64Z"/><path class="c7fe0ecb-cf02-48c1-a450-adc8ea6170c8" d="M103.94,186.93c0-11.47,6.66-19.17,16.72-19.17,9.47,0,16.21,7.47,16.21,19.17,0,1.11-.07,2.37-.15,3.18H109.86c.59,6.36,5.7,10.66,10.8,10.66,5.77,0,9.33-2.81,11.92-5.11l3.85,3.85c-3.77,3.77-8.14,6.73-15.76,6.73C110.6,206.24,103.94,198.55,103.94,186.93Zm27-2.29c.15-5.77-4.14-11.4-10.29-11.4s-10.66,5.11-10.8,11.4Z"/><path class="c7fe0ecb-cf02-48c1-a450-adc8ea6170c8" d="M142.89,200h6.81V182.12c0-8.58,5.11-14.36,12.73-14.36s12.73,5.77,12.73,14.36h-5.92c0-5.33-2.74-8.88-6.81-8.88s-6.81,3.55-6.81,8.88V200h6.66v5.48H142.89Z"/><path class="c7fe0ecb-cf02-48c1-a450-adc8ea6170c8" d="M181.81,186.93c0-11.47,6.66-19.17,16.72-19.17,9.47,0,16.21,7.47,16.21,19.17,0,1.11-.07,2.37-.15,3.18H187.73c.59,6.36,5.7,10.66,10.8,10.66,5.77,0,9.33-2.81,11.92-5.11l3.85,3.85c-3.77,3.77-8.14,6.73-15.76,6.73C188.47,206.24,181.81,198.55,181.81,186.93Zm27-2.29c.15-5.77-4.14-11.4-10.29-11.4s-10.66,5.11-10.8,11.4Z"/><path class="c7fe0ecb-cf02-48c1-a450-adc8ea6170c8" d="M227.35,186.26c0-6.66,4.29-9.77,8.07-12.8,3-2.37,5.62-4.74,5.62-8.81,0-5.7-3.77-9.92-9.47-9.92-5,0-8.73,2.29-12.21,5.77l-3.63-3.85c4.29-4.66,8.14-7.4,15.84-7.4,9.25,0,15.39,6.14,15.39,15.39,0,7.18-4.51,10.21-8.21,13.1-3,2.44-5.48,4.14-5.48,8.51V190h-5.92Zm-1.41,15.1c0-2.81,1.7-4.74,4.29-4.74s4.37,1.92,4.37,4.74-1.78,4.88-4.37,4.88S225.94,204.32,225.94,201.36Z"/><path class="c7fe0ecb-cf02-48c1-a450-adc8ea6170c8" d="M59.2,214.75v-3.7h192.2v3.7Z"/></g></g></svg>