<svg xmlns="http://www.w3.org/2000/svg" viewBox="0 0 760.83 287.72"><defs><style>.e5f1e576-423f-451e-b3ee-f78c87da1c54{fill:#ff6969;}.ca6158c3-7301-4ac8-804b-3e7f9755798b{fill:#ffe3e3;}.\34 7666db8-e9cf-4841-a0d8-3d8e55d7b5da{fill:#ff9d9d;}.\31 5339fcf-fd5c-446d-8cc2-f965de0f50b9{fill:#ccc;}.fe2a362a-0d47-41c0-a33b-0af764f4a3d0{fill:gray;}</style></defs><title>Asset 11mark</title><g id="558e9a5a-2ff3-47b6-8ea0-2c6c868dc46b" data-name="Layer 2"><g id="b1884a92-627d-4530-9726-8f59ccf7273c" data-name="Layer 6"><polygon class="e5f1e576-423f-451e-b3ee-f78c87da1c54" points="0 287.72 381.65 287.72 760.83 287.72 760.83 278.81 381.65 272.87 0 216.44 0 287.72"/><polygon class="ca6158c3-7301-4ac8-804b-3e7f9755798b" points="0 154.07 381.65 255.05 760.83 278.81 376.37 272.87 0 216.44 0 154.07"/><polygon class="47666db8-e9cf-4841-a0d8-3d8e55d7b5da" points="0 145.16 381.65 243.17 760.83 249.11 760.83 278.81 381.65 255.05 0 154.07 0 145.16"/><polygon class="15339fcf-fd5c-446d-8cc2-f965de0f50b9" points="0 124.37 381.65 207.53 760.83 139.22 760.83 249.11 381.65 243.17 0 145.16 0 124.37"/><polygon points="0 85.76 381.65 139.22 760.83 50.12 760.83 139.22 381.65 207.53 0 124.37 0 85.76"/><polygon class="fe2a362a-0d47-41c0-a33b-0af764f4a3d0" points="0 0 760.83 0 760.83 50.12 382.88 139.22 0 85.76 0 0"/></g></g></svg>