<svg id="Layer_1" data-name="Layer 1" xmlns="http://www.w3.org/2000/svg" viewBox="0 0 534.08 214.753">
  <title>Artboard 3</title>
  <g>
    <polygon points="162.503 55.504 170.199 27.16 177.896 55.504 183.299 55.504 189.44 0 183.521 0 179.45 42.553 173.16 18.501 167.239 18.501 160.949 42.553 156.879 0 150.958 0 157.101 55.504 162.503 55.504" style="fill: #231f20"/>
    <path d="M201.589,35.3c0-7.771,5.181-12.063,10.361-12.063,5.106,0,10.36,4.293,10.36,12.063V55.5h5.921V35.448c0-11.767-8.141-17.687-16.281-17.687a11.882,11.882,0,0,0-10.361,5.328V0h-5.92V55.5h5.92Z" style="fill: #231f20"/>
    <path d="M252.4,56.244c9.769,0,16.281-7.623,16.281-19.02,0-11.692-6.513-19.463-16.281-19.463s-16.281,7.771-16.281,19.463C236.116,48.621,242.629,56.244,252.4,56.244Zm0-33.007c6.216,0,10.36,5.625,10.36,13.987,0,8.141-4.145,13.543-10.36,13.543s-10.361-5.4-10.361-13.543C242.036,28.862,246.181,23.237,252.4,23.237Z" style="fill: #231f20"/>
    <path d="M314.556,30.269,336.461,55.5h7.845l-21.979-25.31h3.7c9.1,0,15.171-6.068,15.171-15.1S335.129,0,326.026,0H308.636V55.5h5.92Zm0-24.792h11.471c5.551,0,9.251,3.848,9.251,9.62s-3.7,9.621-9.251,9.621H314.556Z" style="fill: #231f20"/>
    <path d="M363.351,56.244c7.623,0,11.989-2.96,15.764-6.734l-3.849-3.849c-2.59,2.294-6.143,5.106-11.915,5.106-5.105,0-10.212-4.292-10.8-10.656H379.41c.074-.814.148-2.072.148-3.183,0-11.693-6.735-19.167-16.208-19.167-10.064,0-16.725,7.7-16.725,19.167C346.626,48.548,353.286,56.244,363.351,56.244Zm0-33.007c6.143,0,10.436,5.625,10.287,11.4H352.546C352.694,28.344,357.356,23.237,363.351,23.237Z" style="fill: #231f20"/>
    <path d="M401.755,30.786c-9.1,0-15.1,5.032-15.1,12.655,0,7.7,7.326,12.8,15.1,12.8,4.885,0,8.066-1.628,10.064-4.07V55.5h5.921V32.044c0-8.362-6.143-14.282-15.763-14.282-6.513,0-9.917,2.071-13.321,5.7l4.145,4a11.475,11.475,0,0,1,9.177-4.219c5.846,0,9.842,3.627,9.842,8.807v2.295A15.567,15.567,0,0,0,401.755,30.786Zm10.287,12.655c0,4.144-3.849,7.326-9.7,7.326-6.29,0-9.769-3.183-9.769-7.326,0-4.07,3.479-7.179,9.769-7.179C408.193,36.263,412.042,39.371,412.042,43.441Z" style="fill: #231f20"/>
    <polygon points="457.346 50.027 444.173 50.027 444.173 0 425.006 0 425.006 5.477 438.253 5.477 438.253 50.027 425.006 50.027 425.006 55.504 457.346 55.504 457.346 50.027" style="fill: #231f20"/>
    <polygon points="496.95 50.027 483.777 50.027 483.777 0 464.61 0 464.61 5.477 477.857 5.477 477.857 50.027 464.61 50.027 464.61 55.504 496.95 55.504 496.95 50.027" style="fill: #231f20"/>
    <polygon points="534.08 61.054 513.472 61.054 529.643 18.501 523.13 18.501 513.88 44.625 502.853 18.501 496.34 18.501 510.401 51.878 506.964 61.054 147.998 61.054 147.998 64.753 505.578 64.753 502.112 74.005 508.551 74.005 512.067 64.753 534.08 64.753 534.08 61.054" style="fill: #231f20"/>
    <path d="M11.841,105.269,33.746,130.5h7.845l-21.979-25.31h3.7c9.1,0,15.171-6.068,15.171-15.1S32.414,75,23.312,75H5.921v55.5h5.92Zm0-24.792H23.312c5.551,0,9.251,3.848,9.251,9.62s-3.7,9.621-9.251,9.621H11.841Z" style="fill: #231f20"/>
    <path d="M62.309,131.244c9.769,0,16.281-7.1,16.281-17.688V93.5H72.669v20.2c0,7.252-4.145,12.063-10.36,12.063s-10.361-4.811-10.361-12.062V93.5h-5.92v20.056C46.027,124.14,52.54,131.244,62.309,131.244Z" style="fill: #231f20"/>
    <path d="M92.884,110.3c0-7.253,4.145-12.063,10.361-12.063s10.36,4.811,10.36,12.063v20.2h5.921V110.448c0-10.582-6.513-17.687-16.281-17.687s-16.281,7.1-16.281,17.687V130.5h5.92Z" style="fill: #231f20"/>
    <path d="M140.851,125.768c-4.07,0-7.622-2.96-8.584-7.919l-5.477,1.259c.813,7.252,6.809,12.137,14.061,12.137,8.066,0,13.4-4.662,13.4-11.693,0-5.476-3.257-8.88-8.511-10.509-6.217-1.924-10.879-2.294-10.879-5.92,0-2.96,2.813-4.885,5.994-4.885,4.293,0,6.143,2.295,6.957,5.7l5.477-1.185c-1.185-6.29-5.181-9.99-12.434-9.99-6.734,0-11.914,4.144-11.914,10.36,0,5.032,3.552,8.215,8.658,9.62,5.551,1.48,10.73,1.7,10.73,6.809C148.325,123.251,145.365,125.768,140.851,125.768Z" style="fill: #231f20"/>
    <path d="M197.386,81.143V93.5H190.5v5.477h6.883v19.241c0,8.363,4.885,13.025,12.137,13.025,6.364,0,11.175-4.366,12.063-10.879l-5.329-.666c-.962,4.736-3.774,6.068-6.734,6.068-3.7,0-6.216-2.517-6.216-7.549V98.978h12.284V93.5H203.307V81.143Z" style="fill: #231f20"/>
    <path d="M227.851,75v55.5h5.92V110.3c0-7.771,5.181-12.063,10.361-12.063,5.106,0,10.36,4.293,10.36,12.063v20.2h5.921V110.448c0-11.767-8.141-17.687-16.281-17.687a11.882,11.882,0,0,0-10.361,5.328V75Z" style="fill: #231f20"/>
    <path d="M301.083,111.929c0-11.693-6.735-19.167-16.208-19.167-10.064,0-16.725,7.7-16.725,19.167,0,11.619,6.66,19.315,16.725,19.315,7.623,0,11.989-2.96,15.764-6.734l-3.849-3.849c-2.59,2.294-6.143,5.106-11.915,5.106-5.105,0-10.212-4.292-10.8-10.656h26.864C301.009,114.3,301.083,113.039,301.083,111.929Zm-27.013-2.294c.148-6.291,4.811-11.4,10.8-11.4,6.143,0,10.436,5.625,10.287,11.4Z" style="fill: #231f20"/>
    <path d="M354.729,125.768c-4.958,0-9.028-3.626-10.213-9.028l-5.7,1.7c1.924,7.7,8.289,12.8,15.911,12.8,9.99,0,16.651-5.772,16.651-15.615,0-18.724-25.31-14.357-25.31-27.012,0-5.328,3.552-8.881,8.658-8.881,4.07,0,7.771,3.256,9.251,8.141l5.476-1.554A14.944,14.944,0,0,0,354.729,74.26c-8.732,0-14.579,5.772-14.579,14.357,0,18.427,25.31,13.469,25.31,27.012C365.46,122.142,361.094,125.768,354.729,125.768Z" style="fill: #231f20"/>
    <path d="M378.143,75v55.5h5.92V110.3c0-7.771,5.181-12.063,10.361-12.063,5.106,0,10.36,4.293,10.36,12.063v20.2h5.921V110.448c0-11.767-8.141-17.687-16.281-17.687a11.882,11.882,0,0,0-10.361,5.328V75Z" style="fill: #231f20"/>
    <path d="M451.152,112.225c0-11.692-6.513-19.463-16.281-19.463s-16.281,7.771-16.281,19.463c0,11.4,6.513,19.02,16.281,19.02S451.152,123.621,451.152,112.225Zm-26.643,0c0-8.362,4.145-13.987,10.361-13.987s10.36,5.625,10.36,13.987c0,8.141-4.145,13.543-10.36,13.543S424.51,120.365,424.51,112.225Z" style="fill: #231f20"/>
    <polygon points="474.69 104.38 480.61 130.504 485.717 130.504 493.932 93.501 487.789 93.501 482.608 119.848 478.095 96.609 471.286 96.609 466.92 119.848 461.591 93.501 455.449 93.501 463.663 130.504 468.77 130.504 474.69 104.38" style="fill: #231f20"/>
    <rect y="136.054" width="495.408" height="3.699" style="fill: #231f20"/>
    <polygon points="65.12 150 65.12 205.504 71.04 205.504 71.04 180.046 91.762 180.046 91.762 205.504 97.682 205.504 97.682 150 91.762 150 91.762 174.569 71.04 174.569 71.04 150 65.12 150" style="fill: #231f20"/>
    <path d="M138.93,186.929c0-11.693-6.735-19.167-16.208-19.167-10.064,0-16.725,7.7-16.725,19.167,0,11.619,6.66,19.315,16.725,19.315,7.623,0,11.989-2.96,15.764-6.734l-3.849-3.849c-2.59,2.294-6.143,5.106-11.915,5.106-5.105,0-10.212-4.292-10.8-10.656h26.864C138.855,189.3,138.93,188.039,138.93,186.929Zm-27.013-2.294c.148-6.291,4.811-11.4,10.8-11.4,6.143,0,10.436,5.625,10.287,11.4Z" style="fill: #231f20"/>
    <path d="M164.486,173.237c4.07,0,6.809,3.553,6.809,8.881h5.92c0-8.585-5.106-14.356-12.729-14.356s-12.729,5.771-12.729,14.356v17.909h-6.809V205.5h19.39v-5.477h-6.66V182.118C157.678,176.79,160.416,173.237,164.486,173.237Z" style="fill: #231f20"/>
    <path d="M216.8,186.929c0-11.693-6.735-19.167-16.208-19.167-10.064,0-16.725,7.7-16.725,19.167,0,11.619,6.66,19.315,16.725,19.315,7.623,0,11.989-2.96,15.764-6.734l-3.849-3.849c-2.59,2.294-6.143,5.106-11.915,5.106-5.105,0-10.212-4.292-10.8-10.656h26.864C216.723,189.3,216.8,188.039,216.8,186.929Zm-27.013-2.294c.148-6.291,4.811-11.4,10.8-11.4,6.143,0,10.436,5.625,10.287,11.4Z" style="fill: #231f20"/>
    <path d="M228,201.359c0,2.961,1.7,4.885,4.292,4.885s4.366-1.924,4.366-4.885c0-2.812-1.776-4.736-4.366-4.736S228,198.548,228,201.359Z" style="fill: #231f20"/>
    <path d="M240.8,177.752c3.7-2.886,8.215-5.92,8.215-13.1,0-9.251-6.143-15.394-15.394-15.394-7.7,0-11.545,2.738-15.837,7.4l3.626,3.849c3.479-3.479,7.253-5.772,12.211-5.772,5.7,0,9.473,4.219,9.473,9.917,0,4.07-2.664,6.438-5.624,8.807-3.774,3.034-8.066,6.143-8.066,12.8v3.7h5.92v-3.7C235.323,181.9,237.84,180.194,240.8,177.752Z" style="fill: #231f20"/>
    <rect x="59.199" y="211.054" width="194.252" height="3.699" style="fill: #231f20"/>
  </g>
</svg>
