<svg id="Layer_1" data-name="Layer 1" xmlns="http://www.w3.org/2000/svg" viewBox="0 0 390.58 138.492">
  <title>Artboard 6</title>
  <g>
    <path d="M150.958.74h5.921l4.07,42.553,6.29-24.053h5.921l6.29,24.053L183.521.74h5.921l-6.143,55.5h-5.4L170.2,27.9l-7.7,28.344h-5.4Z" style="fill: #fff"/>
    <path d="M194.647,50.768h13.469V24.717H194.647V19.24h19.39V50.768H227.21v5.477H194.647ZM206.563,4.736c0-2.812,1.7-4.736,4.292-4.736s4.366,1.924,4.366,4.736c0,2.961-1.776,4.885-4.366,4.885S206.563,7.7,206.563,4.736Z" style="fill: #fff"/>
    <path d="M267.007,36.188V56.244h-5.921v-20.2c0-7.254-4.145-12.064-10.36-12.064s-10.361,4.811-10.361,12.064v20.2h-5.92V36.188c0-10.582,6.513-17.686,16.281-17.686S267.007,25.605,267.007,36.188Z" style="fill: #fff"/>
    <path d="M308.3,36.188V56.244h-5.921v-20.2c0-7.254-4.145-12.064-10.36-12.064s-10.361,4.811-10.361,12.064v20.2h-5.92V36.188c0-10.582,6.513-17.686,16.281-17.686S308.3,25.605,308.3,36.188Z" style="fill: #fff"/>
    <path d="M316.035,37.668c0-11.471,6.66-19.166,16.725-19.166,9.473,0,16.208,7.473,16.208,19.166,0,1.111-.074,2.369-.148,3.184H321.955c.593,6.363,5.7,10.656,10.8,10.656,5.772,0,9.325-2.812,11.915-5.107l3.849,3.85c-3.774,3.773-8.141,6.734-15.764,6.734C322.7,56.984,316.035,49.287,316.035,37.668Zm27.012-2.293c.148-5.773-4.145-11.4-10.287-11.4-5.994,0-10.656,5.107-10.8,11.4Z" style="fill: #fff"/>
    <path d="M354.986,50.768h6.809V32.857c0-8.584,5.106-14.355,12.729-14.355s12.729,5.771,12.729,14.355h-5.92c0-5.328-2.738-8.881-6.809-8.881s-6.809,3.553-6.809,8.881v17.91h6.66v5.477h-19.39Z" style="fill: #fff"/>
    <path d="M148,65.492v-3.7H390.58v3.7Z" style="fill: #fff"/>
    <path d="M15.985,79.217H1.184V73.74H36.707v5.477h-14.8v50.027h-5.92Z" style="fill: #fff"/>
    <path d="M34.025,117.182c0-7.623,5.994-12.656,15.1-12.656a15.571,15.571,0,0,1,10.065,3.553v-2.295c0-5.18-4-8.807-9.843-8.807a11.475,11.475,0,0,0-9.177,4.219l-4.145-4c3.4-3.627,6.809-5.7,13.321-5.7,9.62,0,15.763,5.92,15.763,14.281v23.461h-5.92v-3.33c-2,2.441-5.181,4.07-10.065,4.07C41.352,129.984,34.025,124.877,34.025,117.182Zm25.384,0c0-4.07-3.849-7.18-9.694-7.18-6.291,0-9.77,3.109-9.77,7.18,0,4.143,3.479,7.326,9.77,7.326C55.561,124.508,59.409,121.324,59.409,117.182Z" style="fill: #fff"/>
    <path d="M74.1,73.74h5.92v33.449L95.2,92.24h7.7L90.015,105.117l14.8,24.127H97.859L85.87,109.262l-5.847,5.848v14.135H74.1Z" style="fill: #fff"/>
    <path d="M107.625,110.668c0-11.471,6.66-19.166,16.725-19.166,9.473,0,16.208,7.473,16.208,19.166,0,1.111-.074,2.369-.148,3.184H113.545c.593,6.363,5.7,10.656,10.8,10.656,5.772,0,9.325-2.812,11.915-5.107l3.849,3.85c-3.774,3.773-8.141,6.734-15.764,6.734C114.285,129.984,107.625,122.287,107.625,110.668Zm27.012-2.293c.148-5.773-4.145-11.4-10.287-11.4-5.994,0-10.656,5.107-10.8,11.4Z" style="fill: #fff"/>
    <path d="M146.969,117.848l5.477-1.26c.962,4.959,4.514,7.92,8.584,7.92,4.515,0,7.475-2.518,7.475-6.217,0-5.107-5.18-5.328-10.73-6.809-5.106-1.406-8.658-4.588-8.658-9.621,0-6.217,5.18-10.359,11.914-10.359,7.253,0,11.249,3.7,12.434,9.99l-5.477,1.184c-.814-3.4-2.664-5.7-6.957-5.7-3.182,0-5.994,1.926-5.994,4.885,0,3.627,4.662,4,10.879,5.92,5.254,1.629,8.511,5.033,8.511,10.51,0,7.031-5.329,11.693-13.4,11.693C153.777,129.984,147.782,125.1,146.969,117.848Z" style="fill: #fff"/>
    <path d="M227.481,73.74h8.437l13.1,55.5h-5.994L239.84,114H223.559l-3.107,15.246h-6.068ZM238.8,108.967l-7.1-29.9-7.1,29.9Z" style="fill: #fff"/>
    <path d="M256.614,123.768h13.247V79.217H256.614V73.74h19.167v50.027h13.173v5.477h-32.34Z" style="fill: #fff"/>
    <path d="M296.219,123.768h13.247V79.217H296.219V73.74h19.167v50.027h13.173v5.477h-32.34Z" style="fill: #fff"/>
    <path d="M0,138.492v-3.7H333v3.7Z" style="fill: #fff"/>
  </g>
</svg>
