<svg xmlns="http://www.w3.org/2000/svg" viewBox="0 0 390.58 138.49"><defs><style>.d4ac2b21-17c9-4398-b29d-1a0b8cf8e702{fill:#fff;}</style></defs><title>Asset 10mark</title><g id="389d90f2-4841-40fa-b304-15db5c035217" data-name="Layer 2"><g id="45dd313f-a3ff-49f5-beff-20ee3e5862ab" data-name="Layer 6"><path class="d4ac2b21-17c9-4398-b29d-1a0b8cf8e702" d="M151,.74h5.92l4.07,42.55,6.29-24.05h5.92l6.29,24.05L183.52.74h5.92l-6.14,55.5h-5.4L170.2,27.9l-7.7,28.34h-5.4Z"/><path class="d4ac2b21-17c9-4398-b29d-1a0b8cf8e702" d="M194.65,50.77h13.47V24.72H194.65V19.24H214V50.77h13.17v5.48H194.65Zm11.92-46c0-2.81,1.7-4.74,4.29-4.74s4.37,1.92,4.37,4.74-1.78,4.88-4.37,4.88S206.56,7.7,206.56,4.74Z"/><path class="d4ac2b21-17c9-4398-b29d-1a0b8cf8e702" d="M267,36.19V56.24h-5.92V36c0-7.25-4.14-12.06-10.36-12.06S240.36,28.79,240.36,36v20.2h-5.92V36.19c0-10.58,6.51-17.69,16.28-17.69S267,25.61,267,36.19Z"/><path class="d4ac2b21-17c9-4398-b29d-1a0b8cf8e702" d="M308.3,36.19V56.24h-5.92V36C302.38,28.79,298.23,24,292,24S281.66,28.79,281.66,36v20.2h-5.92V36.19c0-10.58,6.51-17.69,16.28-17.69S308.3,25.61,308.3,36.19Z"/><path class="d4ac2b21-17c9-4398-b29d-1a0b8cf8e702" d="M316,37.67c0-11.47,6.66-19.17,16.72-19.17C342.23,18.5,349,26,349,37.67c0,1.11-.07,2.37-.15,3.18H322c.59,6.36,5.7,10.66,10.8,10.66,5.77,0,9.33-2.81,11.92-5.11l3.85,3.85C344.75,54,340.38,57,332.76,57,322.7,57,316,49.29,316,37.67Zm27-2.29C343.2,29.6,338.9,24,332.76,24S322.1,29.08,322,35.38Z"/><path class="d4ac2b21-17c9-4398-b29d-1a0b8cf8e702" d="M355,50.77h6.81V32.86c0-8.58,5.11-14.36,12.73-14.36s12.73,5.77,12.73,14.36h-5.92c0-5.33-2.74-8.88-6.81-8.88s-6.81,3.55-6.81,8.88V50.77h6.66v5.48H355Z"/><path class="d4ac2b21-17c9-4398-b29d-1a0b8cf8e702" d="M148,65.49v-3.7H390.58v3.7Z"/><path class="d4ac2b21-17c9-4398-b29d-1a0b8cf8e702" d="M9.1,117V97.72H2.22V92.24H9.1V79.88H15V92.24H27.31v5.48H15V117c0,5,2.52,7.55,6.22,7.55,3,0,5.77-1.33,6.73-6.07l5.33.67C32.41,125.62,27.6,130,21.24,130,14,130,9.1,125.32,9.1,117Z"/><path class="d4ac2b21-17c9-4398-b29d-1a0b8cf8e702" d="M39.53,117.18c0-7.62,6-12.66,15.1-12.66a15.57,15.57,0,0,1,10.06,3.55v-2.29c0-5.18-4-8.81-9.84-8.81a11.48,11.48,0,0,0-9.18,4.22l-4.14-4c3.4-3.63,6.81-5.7,13.32-5.7,9.62,0,15.76,5.92,15.76,14.28v23.46H64.69v-3.33c-2,2.44-5.18,4.07-10.06,4.07C46.86,130,39.53,124.88,39.53,117.18Zm25.38,0c0-4.07-3.85-7.18-9.7-7.18-6.29,0-9.77,3.11-9.77,7.18s3.48,7.33,9.77,7.33C61.07,124.51,64.91,121.32,64.91,117.18Z"/><path class="d4ac2b21-17c9-4398-b29d-1a0b8cf8e702" d="M79.61,73.74h5.92v33.45L100.7,92.24h7.7L95.52,105.12l14.8,24.13h-7l-12-20-5.85,5.85v14.13H79.61Z"/><path class="d4ac2b21-17c9-4398-b29d-1a0b8cf8e702" d="M113.13,110.67c0-11.47,6.66-19.17,16.72-19.17,9.47,0,16.21,7.47,16.21,19.17,0,1.11-.07,2.37-.15,3.18H119c.59,6.36,5.7,10.66,10.8,10.66,5.77,0,9.33-2.81,11.92-5.11l3.85,3.85c-3.77,3.77-8.14,6.73-15.76,6.73C119.79,130,113.13,122.29,113.13,110.67Zm27-2.29C140.29,102.6,136,97,129.85,97s-10.66,5.11-10.8,11.4Z"/><path class="d4ac2b21-17c9-4398-b29d-1a0b8cf8e702" d="M152.47,117.85l5.48-1.26c1,5,4.51,7.92,8.58,7.92,4.51,0,7.47-2.52,7.47-6.22,0-5.11-5.18-5.33-10.73-6.81-5.11-1.41-8.66-4.59-8.66-9.62,0-6.22,5.18-10.36,11.91-10.36,7.25,0,11.25,3.7,12.43,10l-5.48,1.18c-.81-3.4-2.66-5.7-7-5.7-3.18,0-6,1.93-6,4.88,0,3.63,4.66,4,10.88,5.92,5.25,1.63,8.51,5,8.51,10.51,0,7-5.33,11.69-13.4,11.69C159.28,130,153.29,125.1,152.47,117.85Z"/><path class="d4ac2b21-17c9-4398-b29d-1a0b8cf8e702" d="M218.41,117.18c0-7.62,6-12.66,15.1-12.66a15.57,15.57,0,0,1,10.07,3.55v-2.29c0-5.18-4-8.81-9.84-8.81a11.48,11.48,0,0,0-9.18,4.22l-4.14-4c3.4-3.63,6.81-5.7,13.32-5.7,9.62,0,15.76,5.92,15.76,14.28v23.46h-5.92v-3.33c-2,2.44-5.18,4.07-10.07,4.07C225.73,130,218.41,124.88,218.41,117.18Zm25.38,0c0-4.07-3.85-7.18-9.69-7.18-6.29,0-9.77,3.11-9.77,7.18s3.48,7.33,9.77,7.33C239.94,124.51,243.79,121.32,243.79,117.18Z"/><path class="d4ac2b21-17c9-4398-b29d-1a0b8cf8e702" d="M256.75,123.77H270V79.22H256.75V73.74h19.17v50h13.17v5.48H256.75Z"/><path class="d4ac2b21-17c9-4398-b29d-1a0b8cf8e702" d="M296.36,123.77h13.25V79.22H296.36V73.74h19.17v50H328.7v5.48H296.36Z"/><path class="d4ac2b21-17c9-4398-b29d-1a0b8cf8e702" d="M0,138.49v-3.7H333.14v3.7Z"/></g></g></svg>